# MagicaVoxel @ Ephtracy

# group
g deadTree05

# material
mtllib deadTree05.mtl
usemtl palette

# normals
vn -1 0 0
vn 1 0 0
vn 0 0 1
vn 0 0 -1
vn 0 -1 0
vn 0 1 0

# texcoords
vt 0.333984 0.5
vt 0.337891 0.5
vt 0.341797 0.5

# verts
v -4 0 2
v -4 0 -0
v -4 1 2
v -4 1 -0
v -4 6 -0
v -4 6 -1
v -4 9 -0
v -4 9 -1
v -4 11 -0
v -4 11 -1
v -4 12 -0
v -4 12 -1
v -3 0 -0
v -3 0 -2
v -3 1 1
v -3 1 -0
v -3 1 -1
v -3 1 -2
v -3 2 1
v -3 2 -1
v -2 0 -2
v -2 0 -3
v -2 1 -1
v -2 1 -2
v -2 2 -0
v -2 2 -1
v -2 2 -2
v -2 3 -2
v -2 3 -3
v -2 4 -0
v -2 4 -1
v -2 4 -2
v -2 6 -0
v -2 6 -1
v -2 6 -2
v -2 6 -3
v -2 7 -1
v -2 7 -2
v -2 8 -0
v -2 8 -1
v -2 9 -1
v -2 9 -2
v -2 11 -1
v -2 11 -2
v -2 12 -0
v -2 12 -1
v -1 0 -3
v -1 0 -4
v -1 3 1
v -1 3 -0
v -1 3 -3
v -1 3 -4
v -1 4 -0
v -1 4 -3
v -1 4 -4
v -1 5 1
v -1 5 -0
v -1 6 -3
v -1 6 -4
v -1 8 -2
v -1 8 -3
v -1 9 -2
v -1 9 -3
v 0 9 -2
v 0 9 -3
v 0 10 -2
v 0 10 -3
v 0 11 -2
v 0 12 -2
v 0 12 -3
v 0 14 -2
v 0 14 -3
v -3 8 -0
v -3 8 -1
v -3 9 -0
v -3 9 -1
v -3 11 -0
v -3 11 -1
v -3 12 -0
v -3 12 -1
v -2 0 2
v -2 0 1
v -2 1 2
v -2 1 1
v -1 1 1
v -1 1 -0
v -1 2 1
v -1 2 -0
v -1 11 -0
v -1 11 -1
v -1 12 -0
v -1 12 -1
v 0 0 1
v 0 0 -0
v 0 1 1
v 0 1 -0
v 0 3 1
v 0 3 -0
v 0 4 -3
v 0 4 -4
v 0 5 1
v 0 5 -0
v 0 6 -0
v 0 6 -2
v 0 6 -3
v 0 6 -4
v 0 8 -1
v 0 8 -2
v 0 9 -0
v 0 9 -1
v 0 9 -2
v 0 10 -2
v 0 11 -0
v 0 11 -1
v 0 11 -2
v 1 0 -0
v 1 0 -1
v 1 1 -0
v 1 1 -1
v 1 3 -1
v 1 3 -2
v 1 3 -3
v 1 4 -2
v 1 4 -3
v 1 5 -0
v 1 5 -1
v 1 5 -2
v 1 5 -3
v 1 6 -0
v 1 6 -2
v 1 6 -3
v 1 8 -1
v 1 8 -3
v 1 9 -1
v 1 9 -2
v 1 10 -2
v 1 10 -3
v 1 12 -2
v 1 12 -3
v 1 14 -2
v 1 14 -3
v 2 0 -1
v 2 0 -4
v 2 1 -3
v 2 1 -4
v 2 2 -2
v 2 2 -3
v 2 3 -1
v 2 3 -2
v 2 3 -4
v 2 4 -2
v 2 4 -3
v 2 5 -2
v 2 5 -3
v -4 0 2
v -4 1 2
v -2 0 2
v -2 1 2
v -3 1 1
v -3 2 1
v -2 0 1
v -2 1 1
v -1 1 1
v -1 2 1
v -1 3 1
v -1 5 1
v 0 0 1
v 0 1 1
v 0 3 1
v 0 5 1
v -4 6 -0
v -4 9 -0
v -4 11 -0
v -4 12 -0
v -3 8 -0
v -3 9 -0
v -3 11 -0
v -3 12 -0
v -2 2 -0
v -2 4 -0
v -2 6 -0
v -2 7 -0
v -2 8 -0
v -2 12 -0
v -1 1 -0
v -1 2 -0
v -1 3 -0
v -1 4 -0
v -1 5 -0
v -1 7 -0
v -1 9 -0
v -1 11 -0
v -1 12 -0
v 0 0 -0
v 0 1 -0
v 0 3 -0
v 0 5 -0
v 0 6 -0
v 0 9 -0
v 0 11 -0
v 1 0 -0
v 1 1 -0
v 1 5 -0
v 1 6 -0
v 0 8 -1
v 0 9 -1
v 1 0 -1
v 1 1 -1
v 1 3 -1
v 1 8 -1
v 1 9 -1
v 2 0 -1
v 2 3 -1
v 0 9 -2
v 0 10 -2
v 0 11 -2
v 0 12 -2
v 0 14 -2
v 1 4 -2
v 1 5 -2
v 1 9 -2
v 1 10 -2
v 1 12 -2
v 1 14 -2
v 2 4 -2
v 2 5 -2
v -4 0 -0
v -4 1 -0
v -3 0 -0
v -3 1 -0
v -4 6 -1
v -4 9 -1
v -4 11 -1
v -4 12 -1
v -3 1 -1
v -3 2 -1
v -3 8 -1
v -3 9 -1
v -3 11 -1
v -3 12 -1
v -2 1 -1
v -2 2 -1
v -2 6 -1
v -2 7 -1
v -2 8 -1
v -2 11 -1
v -2 12 -1
v -1 11 -1
v -1 12 -1
v -3 0 -2
v -3 1 -2
v -2 0 -2
v -2 1 -2
v -2 6 -2
v -2 7 -2
v -2 9 -2
v -2 11 -2
v -1 7 -2
v -1 8 -2
v -1 9 -2
v 0 6 -2
v 0 8 -2
v 0 9 -2
v 0 10 -2
v 0 11 -2
v -2 0 -3
v -2 3 -3
v -2 6 -3
v -1 0 -3
v -1 3 -3
v -1 4 -3
v -1 6 -3
v -1 8 -3
v -1 9 -3
v 0 3 -3
v 0 4 -3
v 0 6 -3
v 0 9 -3
v 0 10 -3
v 0 12 -3
v 0 14 -3
v 1 3 -3
v 1 4 -3
v 1 5 -3
v 1 6 -3
v 1 8 -3
v 1 10 -3
v 1 12 -3
v 1 14 -3
v 2 4 -3
v 2 5 -3
v -1 0 -4
v -1 3 -4
v -1 4 -4
v -1 6 -4
v 0 2 -4
v 0 3 -4
v 0 4 -4
v 0 6 -4
v 1 1 -4
v 1 2 -4
v 2 0 -4
v 2 1 -4
v 2 3 -4
v -4 0 2
v -2 0 2
v -2 0 1
v 0 0 1
v -4 0 -0
v -3 0 -0
v 0 0 -0
v 1 0 -0
v 1 0 -1
v 2 0 -1
v -3 0 -2
v -2 0 -2
v -1 0 -2
v -2 0 -3
v -1 0 -3
v -1 0 -4
v 2 0 -4
v -1 3 1
v 0 3 1
v -1 3 -0
v 0 3 -0
v 1 4 -2
v 2 4 -2
v -1 4 -3
v 0 4 -3
v 1 4 -3
v 2 4 -3
v -1 4 -4
v 0 4 -4
v -4 6 -0
v -2 6 -0
v -4 6 -1
v -2 6 -1
v 0 8 -1
v 1 8 -1
v -1 8 -2
v 0 8 -2
v -1 8 -3
v 1 8 -3
v -4 1 2
v -2 1 2
v -3 1 1
v -2 1 1
v -1 1 1
v 0 1 1
v -4 1 -0
v -3 1 -0
v -1 1 -0
v 0 1 -0
v -3 1 -1
v -2 1 -1
v -3 1 -2
v -2 1 -2
v -3 2 1
v -1 2 1
v -2 2 -0
v -1 2 -0
v -3 2 -1
v -2 2 -1
v 1 3 -1
v 2 3 -1
v 1 3 -2
v 2 3 -2
v -1 3 -3
v 0 3 -3
v 1 3 -3
v -1 3 -4
v 0 3 -4
v 2 3 -4
v -1 5 1
v 0 5 1
v -1 5 -0
v 0 5 -0
v 1 5 -2
v 2 5 -2
v 1 5 -3
v 2 5 -3
v 0 6 -0
v 1 6 -0
v -2 6 -2
v 0 6 -2
v 1 6 -2
v -2 6 -3
v -1 6 -3
v 0 6 -3
v 1 6 -3
v -1 6 -4
v 0 6 -4
v -3 8 -0
v -2 8 -0
v -3 8 -1
v -2 8 -1
v 0 9 -1
v 1 9 -1
v -1 9 -2
v 0 9 -2
v 1 9 -2
v -1 9 -3
v 0 9 -3
v -1 11 -0
v 0 11 -0
v -2 11 -1
v -1 11 -1
v 0 11 -1
v -2 11 -2
v 0 11 -2
v -4 12 -0
v -3 12 -0
v -2 12 -0
v -1 12 -0
v -4 12 -1
v -3 12 -1
v -2 12 -1
v -1 12 -1
v 0 14 -2
v 1 14 -2
v 0 14 -3
v 1 14 -3

# faces
f 3/3/1 2/3/1 1/3/1
f 4/3/1 2/3/1 3/3/1
f 7/3/1 6/3/1 5/3/1
f 8/3/1 6/3/1 7/3/1
f 9/2/1 8/2/1 7/2/1
f 10/2/1 8/2/1 9/2/1
f 11/3/1 10/3/1 9/3/1
f 12/3/1 10/3/1 11/3/1
f 16/3/1 14/3/1 13/3/1
f 17/3/1 14/3/1 16/3/1
f 18/3/1 14/3/1 17/3/1
f 19/3/1 16/3/1 15/3/1
f 19/3/1 17/3/1 16/3/1
f 20/3/1 17/3/1 19/3/1
f 24/1/1 22/1/1 21/1/1
f 26/3/1 24/3/1 23/3/1
f 27/1/1 22/1/1 24/1/1
f 27/3/1 24/3/1 26/3/1
f 28/2/1 27/2/1 26/2/1
f 28/1/1 22/1/1 27/1/1
f 29/1/1 22/1/1 28/1/1
f 30/3/1 26/3/1 25/3/1
f 31/2/1 28/2/1 26/2/1
f 31/3/1 26/3/1 30/3/1
f 32/3/1 29/3/1 28/3/1
f 32/2/1 28/2/1 31/2/1
f 33/2/1 31/2/1 30/2/1
f 34/3/1 32/3/1 31/3/1
f 34/2/1 31/2/1 33/2/1
f 35/3/1 29/3/1 32/3/1
f 35/3/1 32/3/1 34/3/1
f 36/3/1 29/3/1 35/3/1
f 37/3/1 35/3/1 34/3/1
f 38/3/1 35/3/1 37/3/1
f 40/2/1 38/2/1 37/2/1
f 41/2/1 38/2/1 40/2/1
f 41/3/1 40/3/1 39/3/1
f 42/2/1 38/2/1 41/2/1
f 43/3/1 41/3/1 39/3/1
f 43/3/1 42/3/1 41/3/1
f 44/3/1 42/3/1 43/3/1
f 45/3/1 43/3/1 39/3/1
f 46/3/1 43/3/1 45/3/1
f 51/3/1 48/3/1 47/3/1
f 52/3/1 48/3/1 51/3/1
f 53/3/1 50/3/1 49/3/1
f 56/3/1 53/3/1 49/3/1
f 57/3/1 53/3/1 56/3/1
f 58/3/1 55/3/1 54/3/1
f 59/3/1 55/3/1 58/3/1
f 62/3/1 61/3/1 60/3/1
f 63/3/1 61/3/1 62/3/1
f 66/3/1 65/3/1 64/3/1
f 67/3/1 65/3/1 66/3/1
f 68/2/1 67/2/1 66/2/1
f 69/2/1 67/2/1 68/2/1
f 70/2/1 67/2/1 69/2/1
f 71/3/1 70/3/1 69/3/1
f 72/3/1 70/3/1 71/3/1
f 73/3/2 74/3/2 75/3/2
f 75/3/2 74/3/2 76/3/2
f 75/2/2 76/2/2 77/2/2
f 77/2/2 76/2/2 78/2/2
f 77/3/2 78/3/2 79/3/2
f 79/3/2 78/3/2 80/3/2
f 81/3/2 82/3/2 83/3/2
f 83/3/2 82/3/2 84/3/2
f 85/3/2 86/3/2 87/3/2
f 87/3/2 86/3/2 88/3/2
f 89/3/2 90/3/2 91/3/2
f 91/3/2 90/3/2 92/3/2
f 93/3/2 94/3/2 95/3/2
f 95/3/2 94/3/2 96/3/2
f 97/3/2 98/3/2 101/3/2
f 101/3/2 98/3/2 102/3/2
f 99/3/2 100/3/2 105/3/2
f 105/3/2 100/3/2 106/3/2
f 103/3/2 104/3/2 107/3/2
f 107/3/2 104/3/2 108/3/2
f 103/3/2 107/3/2 109/3/2
f 109/3/2 107/3/2 110/3/2
f 110/3/2 111/3/2 112/3/2
f 109/2/2 110/2/2 113/2/2
f 110/3/2 112/3/2 114/3/2
f 113/2/2 110/2/2 114/2/2
f 114/3/2 112/3/2 115/3/2
f 116/3/2 117/3/2 118/3/2
f 118/3/2 117/3/2 119/3/2
f 118/1/2 119/1/2 120/1/2
f 120/3/2 121/3/2 123/3/2
f 121/2/2 122/2/2 123/2/2
f 123/2/2 122/2/2 124/2/2
f 118/1/2 120/1/2 125/1/2
f 120/3/2 123/3/2 126/3/2
f 125/1/2 120/1/2 126/1/2
f 126/3/2 123/3/2 127/3/2
f 125/3/2 126/3/2 129/3/2
f 126/3/2 127/3/2 129/3/2
f 127/1/2 128/1/2 130/1/2
f 129/3/2 127/3/2 130/3/2
f 130/1/2 128/1/2 131/1/2
f 132/3/2 133/3/2 134/3/2
f 134/3/2 133/3/2 135/3/2
f 135/3/2 133/3/2 136/3/2
f 136/3/2 133/3/2 137/3/2
f 136/2/2 137/2/2 138/2/2
f 138/2/2 137/2/2 139/2/2
f 138/3/2 139/3/2 140/3/2
f 140/3/2 139/3/2 141/3/2
f 142/3/2 143/3/2 144/3/2
f 144/3/2 143/3/2 145/3/2
f 142/3/2 144/3/2 146/3/2
f 144/2/2 145/2/2 147/2/2
f 146/3/2 144/3/2 147/3/2
f 142/3/2 146/3/2 148/3/2
f 146/2/2 147/2/2 149/2/2
f 148/3/2 146/3/2 149/3/2
f 147/2/2 145/2/2 150/2/2
f 149/2/2 147/2/2 150/2/2
f 151/3/2 152/3/2 153/3/2
f 153/3/2 152/3/2 154/3/2
f 157/3/3 156/3/3 155/3/3
f 158/3/3 156/3/3 157/3/3
f 162/3/3 160/3/3 159/3/3
f 163/3/3 160/3/3 162/3/3
f 163/3/3 162/3/3 161/3/3
f 164/3/3 160/3/3 163/3/3
f 167/3/3 163/3/3 161/3/3
f 168/3/3 163/3/3 167/3/3
f 169/3/3 166/3/3 165/3/3
f 170/3/3 166/3/3 169/3/3
f 175/3/3 172/3/3 171/3/3
f 176/2/3 173/2/3 172/2/3
f 176/3/3 172/3/3 175/3/3
f 177/3/3 174/3/3 173/3/3
f 177/2/3 173/2/3 176/2/3
f 178/3/3 174/3/3 177/3/3
f 181/3/3 175/3/3 171/3/3
f 182/3/3 175/3/3 181/3/3
f 183/3/3 175/3/3 182/3/3
f 186/3/3 180/3/3 179/3/3
f 187/3/3 180/3/3 186/3/3
f 188/2/3 181/2/3 180/2/3
f 188/3/3 180/3/3 187/3/3
f 188/2/3 182/2/3 181/2/3
f 189/2/3 182/2/3 188/2/3
f 190/3/3 184/3/3 183/3/3
f 190/2/3 182/2/3 189/2/3
f 190/3/3 183/3/3 182/3/3
f 191/3/3 184/3/3 190/3/3
f 192/3/3 184/3/3 191/3/3
f 193/3/3 184/3/3 192/3/3
f 195/3/3 187/3/3 186/3/3
f 195/3/3 186/3/3 185/3/3
f 196/3/3 187/3/3 195/3/3
f 197/3/3 191/3/3 190/3/3
f 197/3/3 190/3/3 189/3/3
f 198/3/3 191/3/3 197/3/3
f 199/2/3 192/2/3 191/2/3
f 199/3/3 191/3/3 198/3/3
f 200/2/3 192/2/3 199/2/3
f 201/3/3 195/3/3 194/3/3
f 202/1/3 196/1/3 195/1/3
f 202/3/3 195/3/3 201/3/3
f 202/1/3 197/1/3 196/1/3
f 203/3/3 198/3/3 197/3/3
f 203/1/3 197/1/3 202/1/3
f 204/3/3 198/3/3 203/3/3
f 210/3/3 206/3/3 205/3/3
f 211/3/3 206/3/3 210/3/3
f 212/3/3 209/3/3 208/3/3
f 212/3/3 208/3/3 207/3/3
f 213/3/3 209/3/3 212/3/3
f 221/3/3 215/3/3 214/3/3
f 222/2/3 216/2/3 215/2/3
f 222/3/3 215/3/3 221/3/3
f 222/2/3 217/2/3 216/2/3
f 223/3/3 218/3/3 217/3/3
f 223/2/3 217/2/3 222/2/3
f 224/3/3 218/3/3 223/3/3
f 225/3/3 220/3/3 219/3/3
f 226/3/3 220/3/3 225/3/3
f 227/3/4 228/3/4 229/3/4
f 229/3/4 228/3/4 230/3/4
f 231/3/4 232/3/4 237/3/4
f 232/2/4 233/2/4 238/2/4
f 237/3/4 232/3/4 238/3/4
f 233/3/4 234/3/4 239/3/4
f 238/2/4 233/2/4 239/2/4
f 239/3/4 234/3/4 240/3/4
f 235/3/4 236/3/4 241/3/4
f 241/3/4 236/3/4 242/3/4
f 231/3/4 237/3/4 243/3/4
f 243/3/4 237/3/4 244/3/4
f 244/3/4 237/3/4 245/3/4
f 246/3/4 247/3/4 248/3/4
f 248/3/4 247/3/4 249/3/4
f 250/3/4 251/3/4 252/3/4
f 252/3/4 251/3/4 253/3/4
f 254/3/4 255/3/4 258/3/4
f 255/2/4 256/2/4 258/2/4
f 258/2/4 256/2/4 259/2/4
f 256/3/4 257/3/4 260/3/4
f 259/2/4 256/2/4 260/2/4
f 258/3/4 259/3/4 261/3/4
f 254/3/4 258/3/4 261/3/4
f 261/3/4 259/3/4 262/3/4
f 260/3/4 257/3/4 263/3/4
f 263/3/4 257/3/4 264/3/4
f 264/3/4 257/3/4 265/3/4
f 266/1/4 267/1/4 269/1/4
f 267/3/4 268/3/4 270/3/4
f 269/1/4 267/1/4 270/1/4
f 270/3/4 268/3/4 271/3/4
f 271/3/4 268/3/4 272/3/4
f 270/3/4 271/3/4 275/3/4
f 275/3/4 271/3/4 276/3/4
f 273/3/4 274/3/4 278/3/4
f 275/2/4 276/2/4 282/2/4
f 276/1/4 277/1/4 283/1/4
f 282/2/4 276/2/4 283/2/4
f 283/1/4 277/1/4 284/1/4
f 284/1/4 277/1/4 285/1/4
f 273/3/4 278/3/4 286/3/4
f 278/3/4 279/3/4 286/3/4
f 279/2/4 280/2/4 287/2/4
f 286/3/4 279/3/4 287/3/4
f 280/3/4 281/3/4 288/3/4
f 287/2/4 280/2/4 288/2/4
f 288/3/4 281/3/4 289/3/4
f 283/3/4 284/3/4 290/3/4
f 290/3/4 284/3/4 291/3/4
f 292/3/4 293/3/4 296/3/4
f 296/3/4 293/3/4 297/3/4
f 294/3/4 295/3/4 298/3/4
f 298/3/4 295/3/4 299/3/4
f 292/3/4 296/3/4 300/3/4
f 296/2/4 297/2/4 301/2/4
f 300/3/4 296/3/4 301/3/4
f 292/3/4 300/3/4 302/3/4
f 300/2/4 301/2/4 303/2/4
f 302/3/4 300/3/4 303/3/4
f 301/2/4 297/2/4 304/2/4
f 303/2/4 301/2/4 304/2/4
f 307/3/5 306/3/5 305/3/5
f 309/3/5 307/3/5 305/3/5
f 309/3/5 308/3/5 307/3/5
f 310/3/5 308/3/5 309/3/5
f 311/3/5 308/3/5 310/3/5
f 313/3/5 312/3/5 311/3/5
f 313/3/5 311/3/5 310/3/5
f 315/3/5 313/3/5 310/3/5
f 315/3/5 314/3/5 313/3/5
f 316/3/5 314/3/5 315/3/5
f 317/3/5 314/3/5 316/3/5
f 318/1/5 317/1/5 316/1/5
f 319/3/5 314/3/5 317/3/5
f 319/1/5 317/1/5 318/1/5
f 320/3/5 314/3/5 319/3/5
f 321/3/5 314/3/5 320/3/5
f 324/3/5 323/3/5 322/3/5
f 325/3/5 323/3/5 324/3/5
f 330/3/5 327/3/5 326/3/5
f 331/3/5 327/3/5 330/3/5
f 332/3/5 329/3/5 328/3/5
f 333/3/5 329/3/5 332/3/5
f 336/3/5 335/3/5 334/3/5
f 337/3/5 335/3/5 336/3/5
f 341/3/5 339/3/5 338/3/5
f 342/3/5 341/3/5 340/3/5
f 343/3/5 339/3/5 341/3/5
f 343/3/5 341/3/5 342/3/5
f 344/3/6 345/3/6 346/3/6
f 346/3/6 345/3/6 347/3/6
f 344/3/6 346/3/6 350/3/6
f 350/3/6 346/3/6 351/3/6
f 348/3/6 349/3/6 352/3/6
f 352/3/6 349/3/6 353/3/6
f 354/3/6 355/3/6 356/3/6
f 356/3/6 355/3/6 357/3/6
f 358/3/6 359/3/6 360/3/6
f 360/3/6 359/3/6 361/3/6
f 358/3/6 360/3/6 362/3/6
f 362/3/6 360/3/6 363/3/6
f 364/3/6 365/3/6 366/3/6
f 366/3/6 365/3/6 367/3/6
f 366/2/6 367/2/6 370/2/6
f 368/3/6 369/3/6 371/3/6
f 369/2/6 370/2/6 372/2/6
f 371/3/6 369/3/6 372/3/6
f 370/2/6 367/2/6 373/2/6
f 372/2/6 370/2/6 373/2/6
f 374/3/6 375/3/6 376/3/6
f 376/3/6 375/3/6 377/3/6
f 378/3/6 379/3/6 380/3/6
f 380/3/6 379/3/6 381/3/6
f 382/3/6 383/3/6 385/3/6
f 385/3/6 383/3/6 386/3/6
f 384/3/6 385/3/6 387/3/6
f 387/3/6 385/3/6 388/3/6
f 385/1/6 386/1/6 389/1/6
f 388/3/6 385/3/6 389/3/6
f 389/1/6 386/1/6 390/1/6
f 388/3/6 389/3/6 391/3/6
f 391/3/6 389/3/6 392/3/6
f 393/3/6 394/3/6 395/3/6
f 395/3/6 394/3/6 396/3/6
f 397/3/6 398/3/6 400/3/6
f 400/3/6 398/3/6 401/3/6
f 399/3/6 400/3/6 402/3/6
f 402/3/6 400/3/6 403/3/6
f 404/2/6 405/2/6 407/2/6
f 407/2/6 405/2/6 408/2/6
f 406/3/6 407/3/6 409/3/6
f 407/3/6 408/3/6 409/3/6
f 409/3/6 408/3/6 410/3/6
f 411/3/6 412/3/6 415/3/6
f 415/3/6 412/3/6 416/3/6
f 413/3/6 414/3/6 417/3/6
f 417/3/6 414/3/6 418/3/6
f 419/3/6 420/3/6 421/3/6
f 421/3/6 420/3/6 422/3/6
