# MagicaVoxel @ Ephtracy

# group
g bush02

# material
mtllib bush02.mtl
usemtl palette

# normals
vn -1 0 0
vn 1 0 0
vn 0 0 1
vn 0 0 -1
vn 0 -1 0
vn 0 1 0

# texcoords
vt 0.486328 0.5
vt 0.490234 0.5
vt 0.537109 0.5

# verts
v -5 1 -1
v -5 1 -2
v -5 2 -1
v -5 2 -2
v -4 1 -0
v -4 1 -1
v -4 2 -0
v -4 2 -1
v -4 2 -2
v -4 3 -1
v -4 3 -2
v -3 1 2
v -3 1 1
v -3 1 -3
v -3 1 -4
v -3 2 2
v -3 2 1
v -3 2 -2
v -3 2 -3
v -3 2 -4
v -3 3 -1
v -3 3 -2
v -3 3 -3
v -3 4 -1
v -3 4 -2
v -2 1 3
v -2 1 2
v -2 1 -4
v -2 1 -6
v -2 2 3
v -2 2 2
v -2 2 -3
v -2 2 -4
v -2 2 -6
v -2 3 2
v -2 3 1
v -2 3 -3
v -2 4 2
v -2 4 1
v -2 4 -0
v -2 4 -1
v -2 4 -3
v -2 4 -4
v -2 5 -0
v -2 5 -1
v -1 0 -1
v -1 0 -3
v -1 1 4
v -1 1 3
v -1 1 1
v -1 1 -1
v -1 1 -2
v -1 1 -3
v -1 1 -6
v -1 1 -7
v -1 2 4
v -1 2 3
v -1 2 2
v -1 2 1
v -1 2 -1
v -1 2 -2
v -1 2 -3
v -1 2 -5
v -1 2 -6
v -1 3 3
v -1 3 2
v -1 3 1
v -1 3 -0
v -1 3 -1
v -1 3 -5
v -1 3 -6
v -1 3 -7
v -1 4 3
v -1 4 2
v -1 4 1
v -1 4 -0
v -1 4 -1
v -1 4 -2
v -1 4 -3
v -1 4 -4
v -1 5 2
v -1 5 -0
v -1 5 -1
v -1 5 -2
v -1 5 -3
v -1 5 -4
v -1 6 -0
v -1 6 -1
v 0 1 -7
v 0 1 -8
v 0 2 -4
v 0 2 -5
v 0 2 -7
v 0 2 -8
v 0 3 -4
v 0 3 -5
v 0 3 -6
v 0 3 -7
v 0 4 -5
v 0 4 -7
v 1 1 -2
v 1 1 -3
v 1 2 -0
v 1 2 -1
v 1 2 -2
v 1 3 -3
v 1 4 -0
v 1 4 -1
v 1 4 -2
v 1 4 -3
v 1 5 -1
v 1 5 -2
v -2 1 -0
v -2 1 -1
v -2 2 -0
v -2 2 -1
v -2 2 -2
v -2 2 -3
v -2 3 -1
v -2 3 -2
v -2 3 -3
v -2 4 -1
v -2 4 -2
v 0 0 -1
v 0 0 -3
v 0 1 4
v 0 1 3
v 0 1 1
v 0 1 -0
v 0 1 -1
v 0 1 -2
v 0 1 -3
v 0 1 -4
v 0 2 4
v 0 2 3
v 0 2 2
v 0 2 1
v 0 2 -0
v 0 2 -1
v 0 2 -2
v 0 2 -3
v 0 3 3
v 0 3 2
v 0 3 -0
v 0 3 -1
v 0 3 -3
v 0 3 -4
v 0 4 3
v 0 4 2
v 0 4 1
v 0 4 -0
v 0 4 -1
v 0 4 -2
v 0 4 -3
v 0 4 -4
v 0 5 2
v 0 5 -0
v 0 5 -1
v 0 5 -2
v 0 5 -3
v 0 5 -4
v 0 6 -0
v 0 6 -1
v 1 1 3
v 1 1 2
v 1 1 -4
v 1 1 -5
v 1 1 -6
v 1 1 -8
v 1 2 3
v 1 2 2
v 1 2 -7
v 1 2 -8
v 1 3 2
v 1 3 1
v 1 3 -3
v 1 3 -4
v 1 3 -5
v 1 3 -6
v 1 4 2
v 1 4 1
v 1 4 -0
v 1 4 -1
v 1 4 -3
v 1 4 -4
v 1 4 -5
v 1 4 -7
v 1 5 -0
v 1 5 -1
v 2 1 2
v 2 1 1
v 2 1 -0
v 2 1 -1
v 2 1 -2
v 2 1 -3
v 2 2 2
v 2 2 1
v 2 2 -0
v 2 2 -1
v 2 2 -2
v 2 2 -3
v 2 2 -5
v 2 2 -6
v 2 3 2
v 2 3 1
v 2 3 -0
v 2 3 -1
v 2 3 -2
v 2 3 -3
v 2 3 -5
v 2 3 -6
v 2 4 -0
v 2 4 -1
v 2 4 -2
v 2 4 -3
v 2 5 -1
v 2 5 -2
v 3 1 -1
v 3 1 -2
v 3 1 -5
v 3 1 -6
v 3 2 -0
v 3 2 -1
v 3 2 -2
v 3 2 -3
v 3 2 -5
v 3 2 -6
v 3 3 -0
v 3 3 -1
v 3 3 -2
v 3 3 -3
v 3 4 -1
v 3 4 -2
v 4 2 -1
v 4 2 -2
v 4 3 -1
v 4 3 -2
v -1 1 4
v -1 2 4
v 0 1 4
v 0 2 4
v -2 1 3
v -2 2 3
v -1 1 3
v -1 2 3
v -1 3 3
v -1 4 3
v 0 1 3
v 0 2 3
v 0 3 3
v 0 4 3
v 1 1 3
v 1 2 3
v -3 1 2
v -3 2 2
v -2 1 2
v -2 2 2
v -2 3 2
v -2 4 2
v -1 3 2
v -1 4 2
v -1 5 2
v 0 2 2
v 0 3 2
v 0 4 2
v 0 5 2
v 1 1 2
v 1 2 2
v 1 3 2
v 1 4 2
v 2 1 2
v 2 2 2
v 2 3 2
v -4 1 -0
v -4 2 -0
v -2 1 -0
v -2 2 -0
v -2 4 -0
v -2 5 -0
v -1 3 -0
v -1 4 -0
v -1 5 -0
v -1 6 -0
v 0 1 -0
v 0 2 -0
v 0 3 -0
v 0 4 -0
v 0 5 -0
v 0 6 -0
v 1 2 -0
v 1 4 -0
v 1 5 -0
v 2 1 -0
v 2 2 -0
v 2 3 -0
v 2 4 -0
v 3 2 -0
v 3 3 -0
v -5 1 -1
v -5 2 -1
v -4 1 -1
v -4 2 -1
v -4 3 -1
v -3 2 -1
v -3 3 -1
v -3 4 -1
v -2 1 -1
v -2 2 -1
v -2 3 -1
v -2 4 -1
v -1 0 -1
v -1 1 -1
v -1 2 -1
v -1 3 -1
v 0 0 -1
v 0 1 -1
v 0 2 -1
v 0 3 -1
v 1 4 -1
v 1 5 -1
v 2 1 -1
v 2 2 -1
v 2 3 -1
v 2 4 -1
v 2 5 -1
v 3 1 -1
v 3 2 -1
v 3 3 -1
v 3 4 -1
v 4 2 -1
v 4 3 -1
v -3 1 -3
v -3 2 -3
v -2 1 -3
v -2 2 -3
v -2 3 -3
v -2 4 -3
v -1 1 -3
v -1 2 -3
v -1 4 -3
v -1 5 -3
v 0 2 -3
v 0 3 -3
v 0 4 -3
v 0 5 -3
v 1 3 -3
v 1 4 -3
v 0 1 -4
v 0 3 -4
v 1 1 -4
v 1 3 -4
v -1 2 -5
v -1 3 -5
v 0 2 -5
v 0 3 -5
v 0 4 -5
v 1 1 -5
v 1 3 -5
v 1 4 -5
v 2 2 -5
v 2 3 -5
v 3 1 -5
v 3 2 -5
v -3 1 1
v -3 2 1
v -2 1 1
v -2 2 1
v -2 3 1
v -2 4 1
v -1 1 1
v -1 2 1
v -1 3 1
v -1 4 1
v 0 1 1
v 0 2 1
v 0 4 1
v 1 2 1
v 1 3 1
v 1 4 1
v 2 1 1
v 2 2 1
v 2 3 1
v -2 4 -1
v -2 5 -1
v -1 4 -1
v -1 5 -1
v -1 6 -1
v 0 4 -1
v 0 5 -1
v 0 6 -1
v 1 4 -1
v 1 5 -1
v -5 1 -2
v -5 2 -2
v -4 1 -2
v -4 2 -2
v -4 3 -2
v -3 2 -2
v -3 3 -2
v -3 4 -2
v -2 2 -2
v -2 3 -2
v -2 4 -2
v -1 1 -2
v -1 2 -2
v -1 4 -2
v -1 5 -2
v 0 1 -2
v 0 2 -2
v 0 4 -2
v 0 5 -2
v 1 1 -2
v 1 2 -2
v 1 4 -2
v 1 5 -2
v 2 1 -2
v 2 2 -2
v 2 3 -2
v 2 4 -2
v 2 5 -2
v 3 1 -2
v 3 2 -2
v 3 3 -2
v 3 4 -2
v 4 2 -2
v 4 3 -2
v -3 2 -3
v -3 3 -3
v -2 2 -3
v -2 3 -3
v -1 0 -3
v -1 1 -3
v 0 0 -3
v 0 1 -3
v 1 1 -3
v 1 3 -3
v 1 4 -3
v 2 1 -3
v 2 2 -3
v 2 3 -3
v 2 4 -3
v 3 2 -3
v 3 3 -3
v -3 1 -4
v -3 2 -4
v -2 1 -4
v -2 2 -4
v -2 4 -4
v -1 2 -4
v -1 4 -4
v -1 5 -4
v 0 2 -4
v 0 3 -4
v 0 4 -4
v 0 5 -4
v 1 3 -4
v 1 4 -4
v -2 1 -6
v -2 2 -6
v -1 1 -6
v -1 2 -6
v 1 1 -6
v 1 3 -6
v 2 2 -6
v 2 3 -6
v 3 1 -6
v 3 2 -6
v -1 1 -7
v -1 3 -7
v 0 1 -7
v 0 2 -7
v 0 3 -7
v 0 4 -7
v 1 2 -7
v 1 4 -7
v 0 1 -8
v 0 2 -8
v 1 1 -8
v 1 2 -8
v -1 0 -1
v 0 0 -1
v -1 0 -3
v 0 0 -3
v -1 1 4
v 0 1 4
v -2 1 3
v -1 1 3
v 0 1 3
v 1 1 3
v -3 1 2
v -2 1 2
v -1 1 2
v 1 1 2
v 2 1 2
v -3 1 1
v -2 1 1
v -1 1 1
v 0 1 1
v 2 1 1
v -4 1 -0
v -2 1 -0
v 0 1 -0
v 2 1 -0
v -5 1 -1
v -4 1 -1
v -2 1 -1
v -1 1 -1
v 0 1 -1
v 2 1 -1
v 3 1 -1
v -5 1 -2
v -4 1 -2
v -1 1 -2
v 0 1 -2
v 1 1 -2
v 2 1 -2
v 3 1 -2
v -3 1 -3
v -2 1 -3
v -1 1 -3
v 0 1 -3
v 1 1 -3
v 2 1 -3
v -3 1 -4
v -2 1 -4
v -1 1 -4
v 0 1 -4
v 1 1 -4
v 0 1 -5
v 1 1 -5
v 3 1 -5
v -2 1 -6
v -1 1 -6
v 1 1 -6
v 3 1 -6
v -1 1 -7
v 0 1 -7
v 0 1 -8
v 1 1 -8
v 2 2 -0
v 3 2 -0
v 2 2 -1
v 3 2 -1
v 4 2 -1
v -3 2 -2
v -2 2 -2
v 2 2 -2
v 3 2 -2
v 4 2 -2
v -3 2 -3
v -2 2 -3
v 2 2 -3
v 3 2 -3
v -2 3 2
v -1 3 2
v -2 3 1
v -1 3 1
v -1 3 -0
v 0 3 -0
v -1 3 -1
v 0 3 -1
v 0 3 -3
v 1 3 -3
v 0 3 -4
v 1 3 -4
v -1 4 1
v 0 4 1
v -2 4 -0
v -1 4 -0
v 0 4 -0
v 1 4 -0
v -2 4 -1
v -1 4 -1
v 0 4 -1
v 1 4 -1
v -1 2 4
v 0 2 4
v -2 2 3
v -1 2 3
v 0 2 3
v 1 2 3
v -3 2 2
v -2 2 2
v -1 2 2
v 0 2 2
v 1 2 2
v -3 2 1
v -2 2 1
v -1 2 1
v 0 2 1
v -4 2 -0
v -2 2 -0
v 0 2 -0
v 1 2 -0
v -5 2 -1
v -4 2 -1
v -3 2 -1
v -2 2 -1
v -1 2 -1
v 0 2 -1
v 1 2 -1
v -5 2 -2
v -4 2 -2
v -2 2 -2
v -1 2 -2
v 0 2 -2
v 1 2 -2
v -3 2 -3
v -2 2 -3
v -1 2 -3
v 0 2 -3
v -3 2 -4
v -2 2 -4
v -1 2 -4
v 0 2 -4
v -1 2 -5
v 0 2 -5
v 2 2 -5
v 3 2 -5
v -2 2 -6
v -1 2 -6
v 2 2 -6
v 3 2 -6
v 0 2 -7
v 1 2 -7
v 0 2 -8
v 1 2 -8
v 1 3 2
v 2 3 2
v 1 3 1
v 2 3 1
v 2 3 -0
v 3 3 -0
v -4 3 -1
v -3 3 -1
v 2 3 -1
v 3 3 -1
v 4 3 -1
v -4 3 -2
v -3 3 -2
v -2 3 -2
v 2 3 -2
v 3 3 -2
v 4 3 -2
v -3 3 -3
v -2 3 -3
v 2 3 -3
v 3 3 -3
v 0 3 -4
v 1 3 -4
v -1 3 -5
v 0 3 -5
v 1 3 -5
v 2 3 -5
v -1 3 -6
v 0 3 -6
v 1 3 -6
v 2 3 -6
v -1 3 -7
v 0 3 -7
v -1 4 3
v 0 4 3
v -2 4 2
v -1 4 2
v 0 4 2
v 1 4 2
v -2 4 1
v -1 4 1
v 0 4 1
v 1 4 1
v 1 4 -0
v 2 4 -0
v -3 4 -1
v -2 4 -1
v 1 4 -1
v 2 4 -1
v 3 4 -1
v -3 4 -2
v -2 4 -2
v 1 4 -2
v 2 4 -2
v 3 4 -2
v -2 4 -3
v -1 4 -3
v 0 4 -3
v 1 4 -3
v 2 4 -3
v -2 4 -4
v -1 4 -4
v 0 4 -4
v 1 4 -4
v 0 4 -5
v 1 4 -5
v 0 4 -7
v 1 4 -7
v -1 5 2
v 0 5 2
v -2 5 -0
v -1 5 -0
v 0 5 -0
v 1 5 -0
v -2 5 -1
v -1 5 -1
v 0 5 -1
v 1 5 -1
v 2 5 -1
v -1 5 -2
v 0 5 -2
v 1 5 -2
v 2 5 -2
v -1 5 -3
v 0 5 -3
v -1 5 -4
v 0 5 -4
v -1 6 -0
v 0 6 -0
v -1 6 -1
v 0 6 -1

# faces
f 3/2/1 2/2/1 1/2/1
f 4/2/1 2/2/1 3/2/1
f 7/2/1 6/2/1 5/2/1
f 8/2/1 6/2/1 7/2/1
f 10/2/1 9/2/1 8/2/1
f 11/2/1 9/2/1 10/2/1
f 16/2/1 13/2/1 12/2/1
f 17/2/1 13/2/1 16/2/1
f 19/2/1 15/2/1 14/2/1
f 20/2/1 15/2/1 19/2/1
f 22/2/1 19/2/1 18/2/1
f 23/2/1 19/2/1 22/2/1
f 24/1/1 22/1/1 21/1/1
f 25/1/1 22/1/1 24/1/1
f 30/2/1 27/2/1 26/2/1
f 31/2/1 27/2/1 30/2/1
f 33/2/1 29/2/1 28/2/1
f 34/2/1 29/2/1 33/2/1
f 37/2/1 33/2/1 32/2/1
f 38/2/1 36/2/1 35/2/1
f 39/2/1 36/2/1 38/2/1
f 42/2/1 33/2/1 37/2/1
f 43/2/1 33/2/1 42/2/1
f 44/2/1 41/2/1 40/2/1
f 45/2/1 41/2/1 44/2/1
f 51/3/1 47/3/1 46/3/1
f 52/3/1 47/3/1 51/3/1
f 53/3/1 47/3/1 52/3/1
f 56/2/1 49/2/1 48/2/1
f 57/2/1 49/2/1 56/2/1
f 59/3/1 51/3/1 50/3/1
f 60/3/1 51/3/1 59/3/1
f 61/3/1 53/3/1 52/3/1
f 62/3/1 53/3/1 61/3/1
f 64/2/1 55/2/1 54/2/1
f 65/1/1 58/1/1 57/1/1
f 66/3/1 59/3/1 58/3/1
f 66/1/1 58/1/1 65/1/1
f 67/3/1 59/3/1 66/3/1
f 69/3/1 61/3/1 60/3/1
f 70/1/1 64/1/1 63/1/1
f 71/2/1 55/2/1 64/2/1
f 71/1/1 64/1/1 70/1/1
f 72/2/1 55/2/1 71/2/1
f 73/2/1 66/2/1 65/2/1
f 74/2/1 66/2/1 73/2/1
f 76/3/1 69/3/1 68/3/1
f 77/3/1 61/3/1 69/3/1
f 77/3/1 69/3/1 76/3/1
f 78/3/1 61/3/1 77/3/1
f 81/2/1 75/2/1 74/2/1
f 81/2/1 76/2/1 75/2/1
f 82/2/1 76/2/1 81/2/1
f 83/2/1 78/2/1 77/2/1
f 84/2/1 78/2/1 83/2/1
f 85/1/1 80/1/1 79/1/1
f 86/1/1 80/1/1 85/1/1
f 87/1/1 83/1/1 82/1/1
f 88/1/1 83/1/1 87/1/1
f 93/2/1 90/2/1 89/2/1
f 94/2/1 90/2/1 93/2/1
f 95/2/1 92/2/1 91/2/1
f 96/2/1 92/2/1 95/2/1
f 99/2/1 98/2/1 97/2/1
f 99/2/1 97/2/1 96/2/1
f 100/2/1 98/2/1 99/2/1
f 105/2/1 102/2/1 101/2/1
f 106/2/1 102/2/1 105/2/1
f 107/2/1 104/2/1 103/2/1
f 108/3/1 105/3/1 104/3/1
f 108/2/1 104/2/1 107/2/1
f 109/2/1 106/2/1 105/2/1
f 109/3/1 105/3/1 108/3/1
f 110/2/1 106/2/1 109/2/1
f 111/1/1 109/1/1 108/1/1
f 112/1/1 109/1/1 111/1/1
f 113/2/2 114/2/2 115/2/2
f 115/2/2 114/2/2 116/2/2
f 116/3/2 117/3/2 119/3/2
f 117/2/2 118/2/2 120/2/2
f 119/3/2 117/3/2 120/3/2
f 120/2/2 118/2/2 121/2/2
f 119/1/2 120/1/2 122/1/2
f 122/1/2 120/1/2 123/1/2
f 124/3/2 125/3/2 130/3/2
f 130/3/2 125/3/2 131/3/2
f 131/3/2 125/3/2 132/3/2
f 126/2/2 127/2/2 134/2/2
f 134/2/2 127/2/2 135/2/2
f 128/3/2 129/3/2 137/3/2
f 137/3/2 129/3/2 138/3/2
f 132/3/2 133/3/2 140/3/2
f 131/3/2 132/3/2 140/3/2
f 140/3/2 133/3/2 141/3/2
f 135/1/2 136/1/2 142/1/2
f 142/1/2 136/1/2 143/1/2
f 139/3/2 140/3/2 145/3/2
f 141/3/2 133/3/2 146/3/2
f 146/3/2 133/3/2 147/3/2
f 142/2/2 143/2/2 148/2/2
f 148/2/2 143/2/2 149/2/2
f 144/3/2 145/3/2 151/3/2
f 145/3/2 140/3/2 152/3/2
f 151/3/2 145/3/2 152/3/2
f 152/3/2 140/3/2 153/3/2
f 149/2/2 150/2/2 156/2/2
f 150/2/2 151/2/2 156/2/2
f 156/2/2 151/2/2 157/2/2
f 152/2/2 153/2/2 158/2/2
f 158/2/2 153/2/2 159/2/2
f 154/1/2 155/1/2 160/1/2
f 160/1/2 155/1/2 161/1/2
f 157/1/2 158/1/2 162/1/2
f 162/1/2 158/1/2 163/1/2
f 164/2/2 165/2/2 170/2/2
f 170/2/2 165/2/2 171/2/2
f 168/2/2 169/2/2 172/2/2
f 172/2/2 169/2/2 173/2/2
f 166/2/2 167/2/2 177/2/2
f 177/2/2 167/2/2 178/2/2
f 168/2/2 172/2/2 179/2/2
f 174/2/2 175/2/2 180/2/2
f 180/2/2 175/2/2 181/2/2
f 176/2/2 177/2/2 184/2/2
f 184/2/2 177/2/2 185/2/2
f 178/2/2 179/2/2 186/2/2
f 179/2/2 172/2/2 187/2/2
f 186/2/2 179/2/2 187/2/2
f 182/2/2 183/2/2 188/2/2
f 188/2/2 183/2/2 189/2/2
f 190/2/2 191/2/2 196/2/2
f 196/2/2 191/2/2 197/2/2
f 192/2/2 193/2/2 198/2/2
f 198/2/2 193/2/2 199/2/2
f 194/2/2 195/2/2 200/2/2
f 200/2/2 195/2/2 201/2/2
f 196/1/2 197/1/2 204/1/2
f 204/1/2 197/1/2 205/1/2
f 202/2/2 203/2/2 210/2/2
f 210/2/2 203/2/2 211/2/2
f 206/2/2 207/2/2 212/2/2
f 212/2/2 207/2/2 213/2/2
f 208/2/2 209/2/2 214/2/2
f 214/2/2 209/2/2 215/2/2
f 213/1/2 214/1/2 216/1/2
f 216/1/2 214/1/2 217/1/2
f 218/2/2 219/2/2 223/2/2
f 223/2/2 219/2/2 224/2/2
f 220/2/2 221/2/2 226/2/2
f 226/2/2 221/2/2 227/2/2
f 222/2/2 223/2/2 228/2/2
f 228/2/2 223/2/2 229/2/2
f 224/2/2 225/2/2 230/2/2
f 230/2/2 225/2/2 231/2/2
f 229/2/2 230/2/2 232/2/2
f 232/2/2 230/2/2 233/2/2
f 234/1/2 235/1/2 236/1/2
f 236/1/2 235/1/2 237/1/2
f 240/2/3 239/2/3 238/2/3
f 241/2/3 239/2/3 240/2/3
f 244/2/3 243/2/3 242/2/3
f 245/2/3 243/2/3 244/2/3
f 249/1/3 246/1/3 245/1/3
f 250/2/3 247/2/3 246/2/3
f 250/1/3 246/1/3 249/1/3
f 251/2/3 247/2/3 250/2/3
f 252/2/3 249/2/3 248/2/3
f 253/2/3 249/2/3 252/2/3
f 256/2/3 255/2/3 254/2/3
f 257/2/3 255/2/3 256/2/3
f 260/2/3 259/2/3 258/2/3
f 261/2/3 259/2/3 260/2/3
f 265/2/3 262/2/3 261/2/3
f 266/2/3 262/2/3 265/2/3
f 268/2/3 264/2/3 263/2/3
f 268/2/3 265/2/3 264/2/3
f 269/2/3 265/2/3 268/2/3
f 270/2/3 265/2/3 269/2/3
f 271/2/3 268/2/3 267/2/3
f 272/1/3 269/1/3 268/1/3
f 272/2/3 268/2/3 271/2/3
f 273/1/3 269/1/3 272/1/3
f 276/2/3 275/2/3 274/2/3
f 277/2/3 275/2/3 276/2/3
f 281/2/3 279/2/3 278/2/3
f 282/2/3 279/2/3 281/2/3
f 286/3/3 281/3/3 280/3/3
f 287/3/3 281/3/3 286/3/3
f 288/1/3 283/1/3 282/1/3
f 289/1/3 283/1/3 288/1/3
f 290/2/3 285/2/3 284/2/3
f 291/2/3 288/2/3 287/2/3
f 292/2/3 288/2/3 291/2/3
f 293/2/3 290/2/3 284/2/3
f 293/2/3 291/2/3 290/2/3
f 294/2/3 291/2/3 293/2/3
f 295/2/3 291/2/3 294/2/3
f 296/2/3 291/2/3 295/2/3
f 297/2/3 295/2/3 294/2/3
f 298/2/3 295/2/3 297/2/3
f 301/2/3 300/2/3 299/2/3
f 302/2/3 300/2/3 301/2/3
f 304/2/3 303/2/3 302/2/3
f 305/2/3 303/2/3 304/2/3
f 308/3/3 305/3/3 304/3/3
f 309/1/3 306/1/3 305/1/3
f 309/3/3 305/3/3 308/3/3
f 310/1/3 306/1/3 309/1/3
f 312/3/3 308/3/3 307/3/3
f 313/3/3 308/3/3 312/3/3
f 315/3/3 312/3/3 311/3/3
f 316/3/3 312/3/3 315/3/3
f 317/3/3 314/3/3 313/3/3
f 318/3/3 314/3/3 317/3/3
f 324/1/3 320/1/3 319/1/3
f 325/1/3 320/1/3 324/1/3
f 326/2/3 322/2/3 321/2/3
f 327/2/3 322/2/3 326/2/3
f 328/2/3 324/2/3 323/2/3
f 329/2/3 324/2/3 328/2/3
f 330/1/3 328/1/3 327/1/3
f 331/1/3 328/1/3 330/1/3
f 334/2/3 333/2/3 332/2/3
f 335/2/3 333/2/3 334/2/3
f 338/3/3 335/3/3 334/3/3
f 339/2/3 337/2/3 336/2/3
f 339/3/3 335/3/3 338/3/3
f 339/2/3 336/2/3 335/2/3
f 340/2/3 337/2/3 339/2/3
f 342/3/3 340/3/3 339/3/3
f 343/3/3 340/3/3 342/3/3
f 344/1/3 341/1/3 340/1/3
f 344/3/3 340/3/3 343/3/3
f 345/1/3 341/1/3 344/1/3
f 346/2/3 344/2/3 343/2/3
f 347/2/3 344/2/3 346/2/3
f 350/2/3 349/2/3 348/2/3
f 351/2/3 349/2/3 350/2/3
f 354/1/3 353/1/3 352/1/3
f 355/1/3 353/1/3 354/1/3
f 358/2/3 356/2/3 355/2/3
f 359/2/3 356/2/3 358/2/3
f 360/2/3 358/2/3 357/2/3
f 361/2/3 358/2/3 360/2/3
f 362/2/3 360/2/3 357/2/3
f 363/2/3 360/2/3 362/2/3
f 364/2/4 365/2/4 366/2/4
f 366/2/4 365/2/4 367/2/4
f 366/3/4 367/3/4 370/3/4
f 370/3/4 367/3/4 371/3/4
f 368/2/4 369/2/4 372/2/4
f 372/2/4 369/2/4 373/2/4
f 371/3/4 372/3/4 375/3/4
f 372/3/4 373/3/4 375/3/4
f 375/3/4 373/3/4 376/3/4
f 374/2/4 375/2/4 377/2/4
f 375/2/4 376/2/4 377/2/4
f 377/2/4 376/2/4 378/2/4
f 378/2/4 376/2/4 379/2/4
f 374/2/4 377/2/4 380/2/4
f 377/1/4 378/1/4 381/1/4
f 380/2/4 377/2/4 381/2/4
f 381/1/4 378/1/4 382/1/4
f 383/2/4 384/2/4 385/2/4
f 385/2/4 384/2/4 386/2/4
f 386/1/4 387/1/4 389/1/4
f 389/1/4 387/1/4 390/1/4
f 388/2/4 389/2/4 391/2/4
f 391/2/4 389/2/4 392/2/4
f 393/2/4 394/2/4 395/2/4
f 395/2/4 394/2/4 396/2/4
f 395/3/4 396/3/4 398/3/4
f 396/2/4 397/2/4 398/2/4
f 398/2/4 397/2/4 399/2/4
f 395/3/4 398/3/4 401/3/4
f 399/1/4 400/1/4 402/1/4
f 402/1/4 400/1/4 403/1/4
f 395/3/4 401/3/4 404/3/4
f 404/3/4 401/3/4 405/3/4
f 405/3/4 406/3/4 409/3/4
f 406/2/4 407/2/4 410/2/4
f 409/3/4 406/3/4 410/3/4
f 410/2/4 407/2/4 411/2/4
f 408/3/4 409/3/4 412/3/4
f 412/3/4 409/3/4 413/3/4
f 414/1/4 415/1/4 419/1/4
f 419/1/4 415/1/4 420/1/4
f 416/2/4 417/2/4 421/2/4
f 421/2/4 417/2/4 422/2/4
f 418/2/4 419/2/4 423/2/4
f 423/2/4 419/2/4 424/2/4
f 422/1/4 423/1/4 425/1/4
f 425/1/4 423/1/4 426/1/4
f 427/2/4 428/2/4 429/2/4
f 429/2/4 428/2/4 430/2/4
f 431/3/4 432/3/4 433/3/4
f 433/3/4 432/3/4 434/3/4
f 435/2/4 436/2/4 438/2/4
f 436/2/4 437/2/4 438/2/4
f 438/2/4 437/2/4 439/2/4
f 439/2/4 437/2/4 440/2/4
f 440/2/4 437/2/4 441/2/4
f 439/2/4 440/2/4 442/2/4
f 442/2/4 440/2/4 443/2/4
f 444/2/4 445/2/4 446/2/4
f 446/2/4 445/2/4 447/2/4
f 447/2/4 448/2/4 449/2/4
f 449/2/4 448/2/4 450/2/4
f 449/3/4 450/3/4 452/3/4
f 452/3/4 450/3/4 453/3/4
f 450/1/4 451/1/4 454/1/4
f 453/3/4 450/3/4 454/3/4
f 454/1/4 451/1/4 455/1/4
f 453/2/4 454/2/4 456/2/4
f 456/2/4 454/2/4 457/2/4
f 458/2/4 459/2/4 460/2/4
f 460/2/4 459/2/4 461/2/4
f 462/2/4 463/2/4 464/2/4
f 464/2/4 463/2/4 465/2/4
f 462/2/4 464/2/4 466/2/4
f 466/2/4 464/2/4 467/2/4
f 468/2/4 469/2/4 470/2/4
f 470/2/4 469/2/4 471/2/4
f 471/2/4 469/2/4 472/2/4
f 472/2/4 473/2/4 474/2/4
f 471/2/4 472/2/4 474/2/4
f 474/2/4 473/2/4 475/2/4
f 476/2/4 477/2/4 478/2/4
f 478/2/4 477/2/4 479/2/4
f 482/3/5 481/3/5 480/3/5
f 483/3/5 481/3/5 482/3/5
f 487/2/5 485/2/5 484/2/5
f 488/2/5 485/2/5 487/2/5
f 491/2/5 487/2/5 486/2/5
f 492/3/5 488/3/5 487/3/5
f 492/2/5 487/2/5 491/2/5
f 493/2/5 489/2/5 488/2/5
f 495/2/5 491/2/5 490/2/5
f 496/3/5 492/3/5 491/3/5
f 496/2/5 491/2/5 495/2/5
f 497/3/5 488/3/5 492/3/5
f 497/3/5 492/3/5 496/3/5
f 498/2/5 494/2/5 493/2/5
f 498/3/5 488/3/5 497/3/5
f 498/2/5 493/2/5 488/2/5
f 499/2/5 494/2/5 498/2/5
f 502/3/5 498/3/5 497/3/5
f 505/2/5 501/2/5 500/2/5
f 506/2/5 501/2/5 505/2/5
f 507/3/5 502/3/5 497/3/5
f 508/2/5 503/2/5 502/2/5
f 508/3/5 502/3/5 507/3/5
f 509/2/5 503/2/5 508/2/5
f 511/2/5 505/2/5 504/2/5
f 512/3/5 507/3/5 506/3/5
f 512/2/5 505/2/5 511/2/5
f 512/3/5 506/3/5 505/3/5
f 513/3/5 507/3/5 512/3/5
f 514/3/5 509/3/5 508/3/5
f 515/3/5 509/3/5 514/3/5
f 516/2/5 510/2/5 509/2/5
f 516/3/5 509/3/5 515/3/5
f 517/2/5 510/2/5 516/2/5
f 522/2/5 516/2/5 515/2/5
f 523/2/5 516/2/5 522/2/5
f 524/2/5 519/2/5 518/2/5
f 525/3/5 521/3/5 520/3/5
f 525/2/5 519/2/5 524/2/5
f 525/3/5 520/3/5 519/3/5
f 526/3/5 521/3/5 525/3/5
f 527/3/5 521/3/5 526/3/5
f 529/2/5 528/2/5 527/2/5
f 529/3/5 527/3/5 526/3/5
f 530/2/5 528/2/5 529/2/5
f 532/2/5 526/2/5 525/2/5
f 533/3/5 530/3/5 529/3/5
f 533/2/5 526/2/5 532/2/5
f 533/3/5 529/3/5 526/3/5
f 534/2/5 531/2/5 530/2/5
f 534/3/5 530/3/5 533/3/5
f 535/2/5 531/2/5 534/2/5
f 536/2/5 534/2/5 533/2/5
f 537/2/5 534/2/5 536/2/5
f 538/2/5 534/2/5 537/2/5
f 539/2/5 534/2/5 538/2/5
f 542/2/5 541/2/5 540/2/5
f 543/2/5 541/2/5 542/2/5
f 548/1/5 544/1/5 543/1/5
f 549/1/5 544/1/5 548/1/5
f 550/2/5 546/2/5 545/2/5
f 551/2/5 546/2/5 550/2/5
f 552/2/5 548/2/5 547/2/5
f 553/2/5 548/2/5 552/2/5
f 556/2/5 555/2/5 554/2/5
f 557/2/5 555/2/5 556/2/5
f 560/3/5 559/3/5 558/3/5
f 561/3/5 559/3/5 560/3/5
f 564/2/5 563/2/5 562/2/5
f 565/2/5 563/2/5 564/2/5
f 569/2/5 567/2/5 566/2/5
f 570/2/5 567/2/5 569/2/5
f 572/2/5 569/2/5 568/2/5
f 573/2/5 569/2/5 572/2/5
f 574/2/5 571/2/5 570/2/5
f 575/2/5 571/2/5 574/2/5
f 576/2/6 577/2/6 579/2/6
f 579/2/6 577/2/6 580/2/6
f 578/2/6 579/2/6 583/2/6
f 583/2/6 579/2/6 584/2/6
f 580/2/6 581/2/6 585/2/6
f 585/2/6 581/2/6 586/2/6
f 582/2/6 583/2/6 587/2/6
f 583/3/6 584/3/6 588/3/6
f 587/2/6 583/2/6 588/2/6
f 588/3/6 584/3/6 589/3/6
f 589/3/6 590/3/6 593/3/6
f 591/2/6 592/2/6 596/2/6
f 596/2/6 592/2/6 597/2/6
f 597/2/6 592/2/6 598/2/6
f 589/3/6 593/3/6 599/3/6
f 593/2/6 594/2/6 600/2/6
f 599/3/6 593/3/6 600/3/6
f 600/2/6 594/2/6 601/2/6
f 595/2/6 596/2/6 602/2/6
f 602/2/6 596/2/6 603/2/6
f 598/3/6 599/3/6 604/3/6
f 604/3/6 599/3/6 605/3/6
f 600/3/6 601/3/6 606/3/6
f 606/3/6 601/3/6 607/3/6
f 605/3/6 606/3/6 610/3/6
f 610/3/6 606/3/6 611/3/6
f 608/2/6 609/2/6 612/2/6
f 612/2/6 609/2/6 613/2/6
f 614/3/6 615/3/6 616/3/6
f 613/2/6 614/2/6 616/2/6
f 616/3/6 615/3/6 617/3/6
f 613/2/6 616/2/6 620/2/6
f 620/2/6 616/2/6 621/2/6
f 618/2/6 619/2/6 622/2/6
f 622/2/6 619/2/6 623/2/6
f 624/2/6 625/2/6 626/2/6
f 626/2/6 625/2/6 627/2/6
f 628/1/6 629/1/6 630/1/6
f 630/1/6 629/1/6 631/1/6
f 632/2/6 633/2/6 636/2/6
f 636/2/6 633/2/6 637/2/6
f 634/2/6 635/2/6 639/2/6
f 639/2/6 635/2/6 640/2/6
f 637/1/6 638/1/6 643/1/6
f 643/1/6 638/1/6 644/1/6
f 640/2/6 641/2/6 645/2/6
f 645/2/6 641/2/6 646/2/6
f 642/2/6 643/2/6 647/2/6
f 647/2/6 643/2/6 648/2/6
f 649/2/6 650/2/6 652/2/6
f 652/2/6 650/2/6 653/2/6
f 651/1/6 652/1/6 655/1/6
f 655/1/6 652/1/6 656/1/6
f 653/2/6 654/2/6 657/2/6
f 657/2/6 654/2/6 658/2/6
f 655/2/6 656/2/6 659/2/6
f 659/2/6 656/2/6 660/2/6
f 661/2/6 662/2/6 664/2/6
f 664/2/6 662/2/6 665/2/6
f 663/2/6 664/2/6 667/2/6
f 667/2/6 664/2/6 668/2/6
f 665/2/6 666/2/6 669/2/6
f 669/2/6 666/2/6 670/2/6
f 671/2/6 672/2/6 675/2/6
f 675/2/6 672/2/6 676/2/6
f 673/1/6 674/1/6 678/1/6
f 678/1/6 674/1/6 679/1/6
f 676/2/6 677/2/6 681/2/6
f 681/2/6 677/2/6 682/2/6
f 680/2/6 681/2/6 686/2/6
f 686/2/6 681/2/6 687/2/6
f 683/2/6 684/2/6 688/2/6
f 688/2/6 684/2/6 689/2/6
f 685/2/6 686/2/6 690/2/6
f 690/2/6 686/2/6 691/2/6
f 692/2/6 693/2/6 694/2/6
f 694/2/6 693/2/6 695/2/6
f 696/2/6 697/2/6 699/2/6
f 699/2/6 697/2/6 700/2/6
f 698/2/6 699/2/6 702/2/6
f 702/2/6 699/2/6 703/2/6
f 700/2/6 701/2/6 704/2/6
f 704/2/6 701/2/6 705/2/6
f 703/2/6 704/2/6 707/2/6
f 707/2/6 704/2/6 708/2/6
f 705/1/6 706/1/6 709/1/6
f 709/1/6 706/1/6 710/1/6
f 711/1/6 712/1/6 713/1/6
f 713/1/6 712/1/6 714/1/6
f 715/1/6 716/1/6 717/1/6
f 717/1/6 716/1/6 718/1/6
