# MagicaVoxel @ Ephtracy

# group
o 

# material
mtllib Cono.mtl
usemtl palette

# normals
vn -1 0 0
vn 1 0 0
vn 0 0 1
vn 0 0 -1
vn 0 -1 0
vn 0 1 0

# texcoords
vt 0.0917969 0.5
vt 0.958984 0.5

# verts
v 4.1 6.3 -4.1
v 4.1 6.3 -8.5
v 4.1 6.6 -4.1
v 4.1 6.6 -8.5
v 4.5 6.6 -4.5
v 4.5 6.6 -8.1
v 4.5 6.8 -4.5
v 4.5 6.8 -8.1
v 4.6 6.8 -4.6
v 4.6 6.8 -8
v 4.6 7 -4.6
v 4.6 7 -8
v 4.7 7 -4.7
v 4.7 7 -7.9
v 4.7 7.2 -4.7
v 4.7 7.2 -7.9
v 4.8 7.2 -4.8
v 4.8 7.2 -7.8
v 4.8 7.4 -4.8
v 4.8 7.4 -7.8
v 4.9 7.4 -4.9
v 4.9 7.4 -7.7
v 4.9 7.6 -4.9
v 4.9 7.6 -7.7
v 5 7.6 -5
v 5 7.6 -7.6
v 5 7.8 -5
v 5 7.8 -7.6
v 5.1 7.8 -5.1
v 5.1 7.8 -7.5
v 5.1 8 -5.1
v 5.1 8 -7.5
v 5.2 8 -5.2
v 5.2 8 -7.4
v 5.2 8.2 -5.2
v 5.2 8.2 -7.4
v 5.3 8.2 -5.3
v 5.3 8.2 -7.3
v 5.3 8.4 -5.3
v 5.3 8.4 -7.3
v 5.4 8.4 -5.4
v 5.4 8.4 -7.2
v 5.4 8.6 -5.4
v 5.4 8.6 -7.2
v 5.5 8.6 -5.5
v 5.5 8.6 -7.1
v 5.5 8.8 -5.5
v 5.5 8.8 -7.1
v 5.6 8.8 -5.6
v 5.6 8.8 -7
v 5.6 9 -5.6
v 5.6 9 -7
v 5.7 9 -5.7
v 5.7 9 -6.9
v 5.7 9.2 -5.7
v 5.7 9.2 -6.9
v 5.8 9.2 -5.8
v 5.8 9.2 -6.8
v 5.8 9.4 -5.8
v 5.8 9.4 -6.8
v 5.9 9.4 -5.9
v 5.9 9.4 -6.7
v 5.9 9.6 -5.9
v 5.9 9.6 -6.7
v 6 9.6 -6
v 6 9.6 -6.6
v 6 9.8 -6
v 6 9.8 -6.6
v 6.1 9.8 -6.1
v 6.1 9.8 -6.5
v 6.1 10 -6.1
v 6.1 10 -6.5
v 6.2 10 -6.2
v 6.2 10 -6.4
v 6.2 10.2 -6.2
v 6.2 10.2 -6.4
v 6.4 10 -6.2
v 6.4 10 -6.4
v 6.4 10.2 -6.2
v 6.4 10.2 -6.4
v 6.5 9.8 -6.1
v 6.5 9.8 -6.5
v 6.5 10 -6.1
v 6.5 10 -6.5
v 6.6 9.6 -6
v 6.6 9.6 -6.6
v 6.6 9.8 -6
v 6.6 9.8 -6.6
v 6.7 9.4 -5.9
v 6.7 9.4 -6.7
v 6.7 9.6 -5.9
v 6.7 9.6 -6.7
v 6.8 9.2 -5.8
v 6.8 9.2 -6.8
v 6.8 9.4 -5.8
v 6.8 9.4 -6.8
v 6.9 9 -5.7
v 6.9 9 -6.9
v 6.9 9.2 -5.7
v 6.9 9.2 -6.9
v 7 8.8 -5.6
v 7 8.8 -7
v 7 9 -5.6
v 7 9 -7
v 7.1 8.6 -5.5
v 7.1 8.6 -7.1
v 7.1 8.8 -5.5
v 7.1 8.8 -7.1
v 7.2 8.4 -5.4
v 7.2 8.4 -7.2
v 7.2 8.6 -5.4
v 7.2 8.6 -7.2
v 7.3 8.2 -5.3
v 7.3 8.2 -7.3
v 7.3 8.4 -5.3
v 7.3 8.4 -7.3
v 7.4 8 -5.2
v 7.4 8 -7.4
v 7.4 8.2 -5.2
v 7.4 8.2 -7.4
v 7.5 7.8 -5.1
v 7.5 7.8 -7.5
v 7.5 8 -5.1
v 7.5 8 -7.5
v 7.6 7.6 -5
v 7.6 7.6 -7.6
v 7.6 7.8 -5
v 7.6 7.8 -7.6
v 7.7 7.4 -4.9
v 7.7 7.4 -7.7
v 7.7 7.6 -4.9
v 7.7 7.6 -7.7
v 7.8 7.2 -4.8
v 7.8 7.2 -7.8
v 7.8 7.4 -4.8
v 7.8 7.4 -7.8
v 7.9 7 -4.7
v 7.9 7 -7.9
v 7.9 7.2 -4.7
v 7.9 7.2 -7.9
v 8 6.8 -4.6
v 8 6.8 -8
v 8 7 -4.6
v 8 7 -8
v 8.1 6.6 -4.5
v 8.1 6.6 -8.1
v 8.1 6.8 -4.5
v 8.1 6.8 -8.1
v 8.5 6.3 -4.1
v 8.5 6.3 -8.5
v 8.5 6.6 -4.1
v 8.5 6.6 -8.5
v 4.1 6.3 -4.1
v 4.1 6.6 -4.1
v 8.5 6.3 -4.1
v 8.5 6.6 -4.1
v 4.5 6.6 -4.5
v 4.5 6.8 -4.5
v 8.1 6.6 -4.5
v 8.1 6.8 -4.5
v 4.6 6.8 -4.6
v 4.6 7 -4.6
v 8 6.8 -4.6
v 8 7 -4.6
v 4.7 7 -4.7
v 4.7 7.2 -4.7
v 7.9 7 -4.7
v 7.9 7.2 -4.7
v 4.8 7.2 -4.8
v 4.8 7.4 -4.8
v 7.8 7.2 -4.8
v 7.8 7.4 -4.8
v 4.9 7.4 -4.9
v 4.9 7.6 -4.9
v 7.7 7.4 -4.9
v 7.7 7.6 -4.9
v 5 7.6 -5
v 5 7.8 -5
v 7.6 7.6 -5
v 7.6 7.8 -5
v 5.1 7.8 -5.1
v 5.1 8 -5.1
v 7.5 7.8 -5.1
v 7.5 8 -5.1
v 5.2 8 -5.2
v 5.2 8.2 -5.2
v 7.4 8 -5.2
v 7.4 8.2 -5.2
v 5.3 8.2 -5.3
v 5.3 8.4 -5.3
v 7.3 8.2 -5.3
v 7.3 8.4 -5.3
v 5.4 8.4 -5.4
v 5.4 8.6 -5.4
v 7.2 8.4 -5.4
v 7.2 8.6 -5.4
v 5.5 8.6 -5.5
v 5.5 8.8 -5.5
v 7.1 8.6 -5.5
v 7.1 8.8 -5.5
v 5.6 8.8 -5.6
v 5.6 9 -5.6
v 7 8.8 -5.6
v 7 9 -5.6
v 5.7 9 -5.7
v 5.7 9.2 -5.7
v 6.9 9 -5.7
v 6.9 9.2 -5.7
v 5.8 9.2 -5.8
v 5.8 9.4 -5.8
v 6.8 9.2 -5.8
v 6.8 9.4 -5.8
v 5.9 9.4 -5.9
v 5.9 9.6 -5.9
v 6.7 9.4 -5.9
v 6.7 9.6 -5.9
v 6 9.6 -6
v 6 9.8 -6
v 6.6 9.6 -6
v 6.6 9.8 -6
v 6.1 9.8 -6.1
v 6.1 10 -6.1
v 6.5 9.8 -6.1
v 6.5 10 -6.1
v 6.2 10 -6.2
v 6.2 10.2 -6.2
v 6.4 10 -6.2
v 6.4 10.2 -6.2
v 6.2 10 -6.4
v 6.2 10.2 -6.4
v 6.4 10 -6.4
v 6.4 10.2 -6.4
v 6.1 9.8 -6.5
v 6.1 10 -6.5
v 6.5 9.8 -6.5
v 6.5 10 -6.5
v 6 9.6 -6.6
v 6 9.8 -6.6
v 6.6 9.6 -6.6
v 6.6 9.8 -6.6
v 5.9 9.4 -6.7
v 5.9 9.6 -6.7
v 6.7 9.4 -6.7
v 6.7 9.6 -6.7
v 5.8 9.2 -6.8
v 5.8 9.4 -6.8
v 6.8 9.2 -6.8
v 6.8 9.4 -6.8
v 5.7 9 -6.9
v 5.7 9.2 -6.9
v 6.9 9 -6.9
v 6.9 9.2 -6.9
v 5.6 8.8 -7
v 5.6 9 -7
v 7 8.8 -7
v 7 9 -7
v 5.5 8.6 -7.1
v 5.5 8.8 -7.1
v 7.1 8.6 -7.1
v 7.1 8.8 -7.1
v 5.4 8.4 -7.2
v 5.4 8.6 -7.2
v 7.2 8.4 -7.2
v 7.2 8.6 -7.2
v 5.3 8.2 -7.3
v 5.3 8.4 -7.3
v 7.3 8.2 -7.3
v 7.3 8.4 -7.3
v 5.2 8 -7.4
v 5.2 8.2 -7.4
v 7.4 8 -7.4
v 7.4 8.2 -7.4
v 5.1 7.8 -7.5
v 5.1 8 -7.5
v 7.5 7.8 -7.5
v 7.5 8 -7.5
v 5 7.6 -7.6
v 5 7.8 -7.6
v 7.6 7.6 -7.6
v 7.6 7.8 -7.6
v 4.9 7.4 -7.7
v 4.9 7.6 -7.7
v 7.7 7.4 -7.7
v 7.7 7.6 -7.7
v 4.8 7.2 -7.8
v 4.8 7.4 -7.8
v 7.8 7.2 -7.8
v 7.8 7.4 -7.8
v 4.7 7 -7.9
v 4.7 7.2 -7.9
v 7.9 7 -7.9
v 7.9 7.2 -7.9
v 4.6 6.8 -8
v 4.6 7 -8
v 8 6.8 -8
v 8 7 -8
v 4.5 6.6 -8.1
v 4.5 6.8 -8.1
v 8.1 6.6 -8.1
v 8.1 6.8 -8.1
v 4.1 6.3 -8.5
v 4.1 6.6 -8.5
v 8.5 6.3 -8.5
v 8.5 6.6 -8.5
v 4.1 6.3 -4.1
v 8.5 6.3 -4.1
v 4.1 6.3 -8.5
v 8.5 6.3 -8.5
v 4.1 6.6 -4.1
v 8.5 6.6 -4.1
v 4.5 6.6 -4.5
v 8.1 6.6 -4.5
v 4.5 6.6 -8.1
v 8.1 6.6 -8.1
v 4.1 6.6 -8.5
v 8.5 6.6 -8.5
v 4.5 6.8 -4.5
v 8.1 6.8 -4.5
v 4.6 6.8 -4.6
v 8 6.8 -4.6
v 4.6 6.8 -8
v 8 6.8 -8
v 4.5 6.8 -8.1
v 8.1 6.8 -8.1
v 4.6 7 -4.6
v 8 7 -4.6
v 4.7 7 -4.7
v 7.9 7 -4.7
v 4.7 7 -7.9
v 7.9 7 -7.9
v 4.6 7 -8
v 8 7 -8
v 4.7 7.2 -4.7
v 7.9 7.2 -4.7
v 4.8 7.2 -4.8
v 7.8 7.2 -4.8
v 4.8 7.2 -7.8
v 7.8 7.2 -7.8
v 4.7 7.2 -7.9
v 7.9 7.2 -7.9
v 4.8 7.4 -4.8
v 7.8 7.4 -4.8
v 4.9 7.4 -4.9
v 7.7 7.4 -4.9
v 4.9 7.4 -7.7
v 7.7 7.4 -7.7
v 4.8 7.4 -7.8
v 7.8 7.4 -7.8
v 4.9 7.6 -4.9
v 7.7 7.6 -4.9
v 5 7.6 -5
v 7.6 7.6 -5
v 5 7.6 -7.6
v 7.6 7.6 -7.6
v 4.9 7.6 -7.7
v 7.7 7.6 -7.7
v 5 7.8 -5
v 7.6 7.8 -5
v 5.1 7.8 -5.1
v 7.5 7.8 -5.1
v 5.1 7.8 -7.5
v 7.5 7.8 -7.5
v 5 7.8 -7.6
v 7.6 7.8 -7.6
v 5.1 8 -5.1
v 7.5 8 -5.1
v 5.2 8 -5.2
v 7.4 8 -5.2
v 5.2 8 -7.4
v 7.4 8 -7.4
v 5.1 8 -7.5
v 7.5 8 -7.5
v 5.2 8.2 -5.2
v 7.4 8.2 -5.2
v 5.3 8.2 -5.3
v 7.3 8.2 -5.3
v 5.3 8.2 -7.3
v 7.3 8.2 -7.3
v 5.2 8.2 -7.4
v 7.4 8.2 -7.4
v 5.3 8.4 -5.3
v 7.3 8.4 -5.3
v 5.4 8.4 -5.4
v 7.2 8.4 -5.4
v 5.4 8.4 -7.2
v 7.2 8.4 -7.2
v 5.3 8.4 -7.3
v 7.3 8.4 -7.3
v 5.4 8.6 -5.4
v 7.2 8.6 -5.4
v 5.5 8.6 -5.5
v 7.1 8.6 -5.5
v 5.5 8.6 -7.1
v 7.1 8.6 -7.1
v 5.4 8.6 -7.2
v 7.2 8.6 -7.2
v 5.5 8.8 -5.5
v 7.1 8.8 -5.5
v 5.6 8.8 -5.6
v 7 8.8 -5.6
v 5.6 8.8 -7
v 7 8.8 -7
v 5.5 8.8 -7.1
v 7.1 8.8 -7.1
v 5.6 9 -5.6
v 7 9 -5.6
v 5.7 9 -5.7
v 6.9 9 -5.7
v 5.7 9 -6.9
v 6.9 9 -6.9
v 5.6 9 -7
v 7 9 -7
v 5.7 9.2 -5.7
v 6.9 9.2 -5.7
v 5.8 9.2 -5.8
v 6.8 9.2 -5.8
v 5.8 9.2 -6.8
v 6.8 9.2 -6.8
v 5.7 9.2 -6.9
v 6.9 9.2 -6.9
v 5.8 9.4 -5.8
v 6.8 9.4 -5.8
v 5.9 9.4 -5.9
v 6.7 9.4 -5.9
v 5.9 9.4 -6.7
v 6.7 9.4 -6.7
v 5.8 9.4 -6.8
v 6.8 9.4 -6.8
v 5.9 9.6 -5.9
v 6.7 9.6 -5.9
v 6 9.6 -6
v 6.6 9.6 -6
v 6 9.6 -6.6
v 6.6 9.6 -6.6
v 5.9 9.6 -6.7
v 6.7 9.6 -6.7
v 6 9.8 -6
v 6.6 9.8 -6
v 6.1 9.8 -6.1
v 6.5 9.8 -6.1
v 6.1 9.8 -6.5
v 6.5 9.8 -6.5
v 6 9.8 -6.6
v 6.6 9.8 -6.6
v 6.1 10 -6.1
v 6.5 10 -6.1
v 6.2 10 -6.2
v 6.4 10 -6.2
v 6.2 10 -6.4
v 6.4 10 -6.4
v 6.1 10 -6.5
v 6.5 10 -6.5
v 6.2 10.2 -6.2
v 6.4 10.2 -6.2
v 6.2 10.2 -6.4
v 6.4 10.2 -6.4

# faces
f 3/1/1 2/1/1 1/1/1
f 4/1/1 2/1/1 3/1/1
f 7/1/1 6/1/1 5/1/1
f 8/1/1 6/1/1 7/1/1
f 11/2/1 10/2/1 9/2/1
f 12/2/1 10/2/1 11/2/1
f 15/2/1 14/2/1 13/2/1
f 16/2/1 14/2/1 15/2/1
f 19/1/1 18/1/1 17/1/1
f 20/1/1 18/1/1 19/1/1
f 23/1/1 22/1/1 21/1/1
f 24/1/1 22/1/1 23/1/1
f 27/2/1 26/2/1 25/2/1
f 28/2/1 26/2/1 27/2/1
f 31/2/1 30/2/1 29/2/1
f 32/2/1 30/2/1 31/2/1
f 35/1/1 34/1/1 33/1/1
f 36/1/1 34/1/1 35/1/1
f 39/1/1 38/1/1 37/1/1
f 40/1/1 38/1/1 39/1/1
f 43/2/1 42/2/1 41/2/1
f 44/2/1 42/2/1 43/2/1
f 47/2/1 46/2/1 45/2/1
f 48/2/1 46/2/1 47/2/1
f 51/1/1 50/1/1 49/1/1
f 52/1/1 50/1/1 51/1/1
f 55/1/1 54/1/1 53/1/1
f 56/1/1 54/1/1 55/1/1
f 59/1/1 58/1/1 57/1/1
f 60/1/1 58/1/1 59/1/1
f 63/1/1 62/1/1 61/1/1
f 64/1/1 62/1/1 63/1/1
f 67/1/1 66/1/1 65/1/1
f 68/1/1 66/1/1 67/1/1
f 71/1/1 70/1/1 69/1/1
f 72/1/1 70/1/1 71/1/1
f 75/1/1 74/1/1 73/1/1
f 76/1/1 74/1/1 75/1/1
f 77/1/2 78/1/2 79/1/2
f 79/1/2 78/1/2 80/1/2
f 81/1/2 82/1/2 83/1/2
f 83/1/2 82/1/2 84/1/2
f 85/1/2 86/1/2 87/1/2
f 87/1/2 86/1/2 88/1/2
f 89/1/2 90/1/2 91/1/2
f 91/1/2 90/1/2 92/1/2
f 93/1/2 94/1/2 95/1/2
f 95/1/2 94/1/2 96/1/2
f 97/1/2 98/1/2 99/1/2
f 99/1/2 98/1/2 100/1/2
f 101/1/2 102/1/2 103/1/2
f 103/1/2 102/1/2 104/1/2
f 105/2/2 106/2/2 107/2/2
f 107/2/2 106/2/2 108/2/2
f 109/2/2 110/2/2 111/2/2
f 111/2/2 110/2/2 112/2/2
f 113/1/2 114/1/2 115/1/2
f 115/1/2 114/1/2 116/1/2
f 117/1/2 118/1/2 119/1/2
f 119/1/2 118/1/2 120/1/2
f 121/2/2 122/2/2 123/2/2
f 123/2/2 122/2/2 124/2/2
f 125/2/2 126/2/2 127/2/2
f 127/2/2 126/2/2 128/2/2
f 129/1/2 130/1/2 131/1/2
f 131/1/2 130/1/2 132/1/2
f 133/1/2 134/1/2 135/1/2
f 135/1/2 134/1/2 136/1/2
f 137/2/2 138/2/2 139/2/2
f 139/2/2 138/2/2 140/2/2
f 141/2/2 142/2/2 143/2/2
f 143/2/2 142/2/2 144/2/2
f 145/1/2 146/1/2 147/1/2
f 147/1/2 146/1/2 148/1/2
f 149/1/2 150/1/2 151/1/2
f 151/1/2 150/1/2 152/1/2
f 155/1/3 154/1/3 153/1/3
f 156/1/3 154/1/3 155/1/3
f 159/1/3 158/1/3 157/1/3
f 160/1/3 158/1/3 159/1/3
f 163/2/3 162/2/3 161/2/3
f 164/2/3 162/2/3 163/2/3
f 167/2/3 166/2/3 165/2/3
f 168/2/3 166/2/3 167/2/3
f 171/1/3 170/1/3 169/1/3
f 172/1/3 170/1/3 171/1/3
f 175/1/3 174/1/3 173/1/3
f 176/1/3 174/1/3 175/1/3
f 179/2/3 178/2/3 177/2/3
f 180/2/3 178/2/3 179/2/3
f 183/2/3 182/2/3 181/2/3
f 184/2/3 182/2/3 183/2/3
f 187/1/3 186/1/3 185/1/3
f 188/1/3 186/1/3 187/1/3
f 191/1/3 190/1/3 189/1/3
f 192/1/3 190/1/3 191/1/3
f 195/2/3 194/2/3 193/2/3
f 196/2/3 194/2/3 195/2/3
f 199/2/3 198/2/3 197/2/3
f 200/2/3 198/2/3 199/2/3
f 203/1/3 202/1/3 201/1/3
f 204/1/3 202/1/3 203/1/3
f 207/1/3 206/1/3 205/1/3
f 208/1/3 206/1/3 207/1/3
f 211/1/3 210/1/3 209/1/3
f 212/1/3 210/1/3 211/1/3
f 215/1/3 214/1/3 213/1/3
f 216/1/3 214/1/3 215/1/3
f 219/1/3 218/1/3 217/1/3
f 220/1/3 218/1/3 219/1/3
f 223/1/3 222/1/3 221/1/3
f 224/1/3 222/1/3 223/1/3
f 227/1/3 226/1/3 225/1/3
f 228/1/3 226/1/3 227/1/3
f 229/1/4 230/1/4 231/1/4
f 231/1/4 230/1/4 232/1/4
f 233/1/4 234/1/4 235/1/4
f 235/1/4 234/1/4 236/1/4
f 237/1/4 238/1/4 239/1/4
f 239/1/4 238/1/4 240/1/4
f 241/1/4 242/1/4 243/1/4
f 243/1/4 242/1/4 244/1/4
f 245/1/4 246/1/4 247/1/4
f 247/1/4 246/1/4 248/1/4
f 249/1/4 250/1/4 251/1/4
f 251/1/4 250/1/4 252/1/4
f 253/1/4 254/1/4 255/1/4
f 255/1/4 254/1/4 256/1/4
f 257/2/4 258/2/4 259/2/4
f 259/2/4 258/2/4 260/2/4
f 261/2/4 262/2/4 263/2/4
f 263/2/4 262/2/4 264/2/4
f 265/1/4 266/1/4 267/1/4
f 267/1/4 266/1/4 268/1/4
f 269/1/4 270/1/4 271/1/4
f 271/1/4 270/1/4 272/1/4
f 273/2/4 274/2/4 275/2/4
f 275/2/4 274/2/4 276/2/4
f 277/2/4 278/2/4 279/2/4
f 279/2/4 278/2/4 280/2/4
f 281/1/4 282/1/4 283/1/4
f 283/1/4 282/1/4 284/1/4
f 285/1/4 286/1/4 287/1/4
f 287/1/4 286/1/4 288/1/4
f 289/2/4 290/2/4 291/2/4
f 291/2/4 290/2/4 292/2/4
f 293/2/4 294/2/4 295/2/4
f 295/2/4 294/2/4 296/2/4
f 297/1/4 298/1/4 299/1/4
f 299/1/4 298/1/4 300/1/4
f 301/1/4 302/1/4 303/1/4
f 303/1/4 302/1/4 304/1/4
f 307/1/5 306/1/5 305/1/5
f 308/1/5 306/1/5 307/1/5
f 309/1/6 310/1/6 311/1/6
f 311/1/6 310/1/6 312/1/6
f 309/1/6 311/1/6 313/1/6
f 312/1/6 310/1/6 314/1/6
f 309/1/6 313/1/6 315/1/6
f 313/1/6 314/1/6 315/1/6
f 314/1/6 310/1/6 316/1/6
f 315/1/6 314/1/6 316/1/6
f 317/1/6 318/1/6 319/1/6
f 319/1/6 318/1/6 320/1/6
f 317/1/6 319/1/6 321/1/6
f 320/1/6 318/1/6 322/1/6
f 317/1/6 321/1/6 323/1/6
f 321/1/6 322/1/6 323/1/6
f 322/1/6 318/1/6 324/1/6
f 323/1/6 322/1/6 324/1/6
f 325/2/6 326/2/6 327/2/6
f 327/2/6 326/2/6 328/2/6
f 325/2/6 327/2/6 329/2/6
f 328/2/6 326/2/6 330/2/6
f 325/2/6 329/2/6 331/2/6
f 329/2/6 330/2/6 331/2/6
f 330/2/6 326/2/6 332/2/6
f 331/2/6 330/2/6 332/2/6
f 333/2/6 334/2/6 335/2/6
f 335/2/6 334/2/6 336/2/6
f 333/2/6 335/2/6 337/2/6
f 336/2/6 334/2/6 338/2/6
f 333/2/6 337/2/6 339/2/6
f 337/2/6 338/2/6 339/2/6
f 338/2/6 334/2/6 340/2/6
f 339/2/6 338/2/6 340/2/6
f 341/1/6 342/1/6 343/1/6
f 343/1/6 342/1/6 344/1/6
f 341/1/6 343/1/6 345/1/6
f 344/1/6 342/1/6 346/1/6
f 341/1/6 345/1/6 347/1/6
f 345/1/6 346/1/6 347/1/6
f 346/1/6 342/1/6 348/1/6
f 347/1/6 346/1/6 348/1/6
f 349/1/6 350/1/6 351/1/6
f 351/1/6 350/1/6 352/1/6
f 349/1/6 351/1/6 353/1/6
f 352/1/6 350/1/6 354/1/6
f 349/1/6 353/1/6 355/1/6
f 353/1/6 354/1/6 355/1/6
f 354/1/6 350/1/6 356/1/6
f 355/1/6 354/1/6 356/1/6
f 357/2/6 358/2/6 359/2/6
f 359/2/6 358/2/6 360/2/6
f 357/2/6 359/2/6 361/2/6
f 360/2/6 358/2/6 362/2/6
f 357/2/6 361/2/6 363/2/6
f 361/2/6 362/2/6 363/2/6
f 362/2/6 358/2/6 364/2/6
f 363/2/6 362/2/6 364/2/6
f 365/2/6 366/2/6 367/2/6
f 367/2/6 366/2/6 368/2/6
f 365/2/6 367/2/6 369/2/6
f 368/2/6 366/2/6 370/2/6
f 365/2/6 369/2/6 371/2/6
f 369/2/6 370/2/6 371/2/6
f 370/2/6 366/2/6 372/2/6
f 371/2/6 370/2/6 372/2/6
f 373/1/6 374/1/6 375/1/6
f 375/1/6 374/1/6 376/1/6
f 373/1/6 375/1/6 377/1/6
f 376/1/6 374/1/6 378/1/6
f 373/1/6 377/1/6 379/1/6
f 377/1/6 378/1/6 379/1/6
f 378/1/6 374/1/6 380/1/6
f 379/1/6 378/1/6 380/1/6
f 381/1/6 382/1/6 383/1/6
f 383/1/6 382/1/6 384/1/6
f 381/1/6 383/1/6 385/1/6
f 384/1/6 382/1/6 386/1/6
f 381/1/6 385/1/6 387/1/6
f 385/1/6 386/1/6 387/1/6
f 386/1/6 382/1/6 388/1/6
f 387/1/6 386/1/6 388/1/6
f 389/2/6 390/2/6 391/2/6
f 391/2/6 390/2/6 392/2/6
f 389/2/6 391/2/6 393/2/6
f 392/2/6 390/2/6 394/2/6
f 389/2/6 393/2/6 395/2/6
f 393/2/6 394/2/6 395/2/6
f 394/2/6 390/2/6 396/2/6
f 395/2/6 394/2/6 396/2/6
f 397/2/6 398/2/6 399/2/6
f 399/2/6 398/2/6 400/2/6
f 397/2/6 399/2/6 401/2/6
f 400/2/6 398/2/6 402/2/6
f 397/2/6 401/2/6 403/2/6
f 401/2/6 402/2/6 403/2/6
f 402/2/6 398/2/6 404/2/6
f 403/2/6 402/2/6 404/2/6
f 405/1/6 406/1/6 407/1/6
f 407/1/6 406/1/6 408/1/6
f 405/1/6 407/1/6 409/1/6
f 408/1/6 406/1/6 410/1/6
f 405/1/6 409/1/6 411/1/6
f 409/1/6 410/1/6 411/1/6
f 410/1/6 406/1/6 412/1/6
f 411/1/6 410/1/6 412/1/6
f 413/1/6 414/1/6 415/1/6
f 415/1/6 414/1/6 416/1/6
f 413/1/6 415/1/6 417/1/6
f 416/1/6 414/1/6 418/1/6
f 413/1/6 417/1/6 419/1/6
f 417/1/6 418/1/6 419/1/6
f 418/1/6 414/1/6 420/1/6
f 419/1/6 418/1/6 420/1/6
f 421/1/6 422/1/6 423/1/6
f 423/1/6 422/1/6 424/1/6
f 421/1/6 423/1/6 425/1/6
f 424/1/6 422/1/6 426/1/6
f 421/1/6 425/1/6 427/1/6
f 425/1/6 426/1/6 427/1/6
f 426/1/6 422/1/6 428/1/6
f 427/1/6 426/1/6 428/1/6
f 429/1/6 430/1/6 431/1/6
f 431/1/6 430/1/6 432/1/6
f 429/1/6 431/1/6 433/1/6
f 432/1/6 430/1/6 434/1/6
f 429/1/6 433/1/6 435/1/6
f 433/1/6 434/1/6 435/1/6
f 434/1/6 430/1/6 436/1/6
f 435/1/6 434/1/6 436/1/6
f 437/1/6 438/1/6 439/1/6
f 439/1/6 438/1/6 440/1/6
f 437/1/6 439/1/6 441/1/6
f 440/1/6 438/1/6 442/1/6
f 437/1/6 441/1/6 443/1/6
f 441/1/6 442/1/6 443/1/6
f 442/1/6 438/1/6 444/1/6
f 443/1/6 442/1/6 444/1/6
f 445/1/6 446/1/6 447/1/6
f 447/1/6 446/1/6 448/1/6
f 445/1/6 447/1/6 449/1/6
f 448/1/6 446/1/6 450/1/6
f 445/1/6 449/1/6 451/1/6
f 449/1/6 450/1/6 451/1/6
f 450/1/6 446/1/6 452/1/6
f 451/1/6 450/1/6 452/1/6
f 453/1/6 454/1/6 455/1/6
f 455/1/6 454/1/6 456/1/6
