# MagicaVoxel @ Ephtracy

# group
o 

# material
mtllib FirstWorkShop(1).mtl
usemtl palette

# normals
vn -1 0 0
vn 1 0 0
vn 0 0 1
vn 0 0 -1
vn 0 -1 0
vn 0 1 0

# texcoords
vt 0.853516 0.5
vt 0.962891 0.5
vt 0.982422 0.5

# verts
v -4 0 5
v -4 0 -5
v -4 0.1 5
v -4 0.1 -5
v -4 1.7 5
v -4 1.7 -5
v -4 5.4 5
v -4 5.4 -5
v -3.9 0.1 4.9
v -3.9 0.1 -5
v -3.9 1.7 4.9
v -3.9 1.7 -5
v -3.9 5.4 4.9
v -3.9 5.4 -5
v 4 0 5
v 4 0 -5
v 4 0.1 5
v 4 0.1 4.9
v 4 0.1 -5
v 4 1.7 5
v 4 1.7 4.9
v 4 5.4 5
v 4 5.4 4.9
v -4 0 5
v -4 0.1 5
v -4 1.7 5
v -4 5.4 5
v 4 0 5
v 4 0.1 5
v 4 1.7 5
v 4 5.4 5
v -3.9 0.1 4.9
v -3.9 1.7 4.9
v -3.9 5.4 4.9
v 4 0.1 4.9
v 4 1.7 4.9
v 4 5.4 4.9
v -4 0 -5
v -4 0.1 -5
v -4 1.7 -5
v -4 5.4 -5
v -3.9 0.1 -5
v -3.9 1.7 -5
v -3.9 5.4 -5
v 4 0 -5
v 4 0.1 -5
v -4 0 5
v 4 0 5
v -4 0 -5
v 4 0 -5
v -3.9 0.1 4.9
v 4 0.1 4.9
v -3.9 0.1 -5
v 4 0.1 -5
v -4 5.4 5
v 4 5.4 5
v -3.9 5.4 4.9
v 4 5.4 4.9
v -4 5.4 -5
v -3.9 5.4 -5

# faces
f 3/3/1 2/3/1 1/3/1
f 4/3/1 2/3/1 3/3/1
f 5/1/1 4/1/1 3/1/1
f 6/1/1 4/1/1 5/1/1
f 7/2/1 6/2/1 5/2/1
f 8/2/1 6/2/1 7/2/1
f 9/1/2 10/1/2 11/1/2
f 11/1/2 10/1/2 12/1/2
f 11/2/2 12/2/2 13/2/2
f 13/2/2 12/2/2 14/2/2
f 15/3/2 16/3/2 17/3/2
f 17/3/2 16/3/2 18/3/2
f 18/3/2 16/3/2 19/3/2
f 17/1/2 18/1/2 20/1/2
f 20/1/2 18/1/2 21/1/2
f 20/2/2 21/2/2 22/2/2
f 22/2/2 21/2/2 23/2/2
f 28/3/3 25/3/3 24/3/3
f 29/1/3 26/1/3 25/1/3
f 29/3/3 25/3/3 28/3/3
f 30/2/3 27/2/3 26/2/3
f 30/1/3 26/1/3 29/1/3
f 31/2/3 27/2/3 30/2/3
f 32/1/4 33/1/4 35/1/4
f 33/2/4 34/2/4 36/2/4
f 35/1/4 33/1/4 36/1/4
f 36/2/4 34/2/4 37/2/4
f 38/3/4 39/3/4 42/3/4
f 39/1/4 40/1/4 42/1/4
f 40/2/4 41/2/4 43/2/4
f 42/1/4 40/1/4 43/1/4
f 43/2/4 41/2/4 44/2/4
f 38/3/4 42/3/4 45/3/4
f 45/3/4 42/3/4 46/3/4
f 49/3/5 48/3/5 47/3/5
f 50/3/5 48/3/5 49/3/5
f 51/3/6 52/3/6 53/3/6
f 53/3/6 52/3/6 54/3/6
f 55/2/6 56/2/6 57/2/6
f 57/2/6 56/2/6 58/2/6
f 55/2/6 57/2/6 59/2/6
f 59/2/6 57/2/6 60/2/6
