# MagicaVoxel @ Ephtracy

# group
g bush03

# material
mtllib bush03.mtl
usemtl palette

# normals
vn -1 0 0
vn 1 0 0
vn 0 0 1
vn 0 0 -1
vn 0 -1 0
vn 0 1 0

# texcoords
vt 0.373047 0.5
vt 0.904297 0.5

# verts
v -6 2 -2
v -6 2 -3
v -6 3 -2
v -6 3 -3
v -5 1 -2
v -5 1 -3
v -5 2 -1
v -5 2 -2
v -5 2 -3
v -5 2 -4
v -5 3 -1
v -5 3 -2
v -5 3 -3
v -5 3 -4
v -5 4 -2
v -5 4 -3
v -4 2 -0
v -4 2 -1
v -4 2 -4
v -4 2 -5
v -4 3 -0
v -4 3 -1
v -4 3 -2
v -4 3 -3
v -4 3 -4
v -4 3 -5
v -4 4 -1
v -4 4 -2
v -4 4 -3
v -4 4 -4
v -4 5 -2
v -4 5 -3
v -3 0 -2
v -3 0 -3
v -3 1 -0
v -3 1 -2
v -3 1 -3
v -3 1 -5
v -3 2 1
v -3 2 -0
v -3 2 -2
v -3 2 -3
v -3 2 -5
v -3 2 -6
v -3 3 1
v -3 3 -0
v -3 3 -1
v -3 3 -4
v -3 3 -5
v -3 3 -6
v -3 4 -0
v -3 4 -1
v -3 4 -2
v -3 4 -3
v -3 4 -4
v -3 4 -5
v -3 5 -1
v -3 5 -2
v -3 5 -3
v -3 5 -4
v -3 6 -2
v -3 6 -3
v -2 2 -1
v -2 2 -2
v -2 2 -3
v -2 2 -4
v -2 3 -1
v -2 3 -4
v -2 4 -1
v -2 4 -2
v -2 4 -3
v -2 4 -4
v -1 2 -2
v -1 2 -3
v -1 3 -2
v -1 3 -3
v -1 4 -2
v -1 4 -3
v -4 2 -2
v -4 2 -3
v -4 3 -2
v -4 3 -3
v -4 4 -2
v -4 4 -3
v -3 2 -1
v -3 2 -2
v -3 2 -3
v -3 2 -4
v -3 3 -1
v -3 3 -4
v -3 4 -1
v -3 4 -2
v -3 4 -3
v -3 4 -4
v -2 0 -2
v -2 0 -3
v -2 1 -0
v -2 1 -2
v -2 1 -3
v -2 1 -5
v -2 2 1
v -2 2 -0
v -2 2 -2
v -2 2 -3
v -2 2 -5
v -2 2 -6
v -2 3 1
v -2 3 -0
v -2 3 -1
v -2 3 -4
v -2 3 -5
v -2 3 -6
v -2 4 -0
v -2 4 -1
v -2 4 -2
v -2 4 -3
v -2 4 -4
v -2 4 -5
v -2 5 -1
v -2 5 -2
v -2 5 -3
v -2 5 -4
v -2 6 -2
v -2 6 -3
v -1 2 -0
v -1 2 -1
v -1 2 -4
v -1 2 -5
v -1 3 -0
v -1 3 -1
v -1 3 -2
v -1 3 -3
v -1 3 -4
v -1 3 -5
v -1 4 -1
v -1 4 -2
v -1 4 -3
v -1 4 -4
v -1 5 -2
v -1 5 -3
v 0 1 -2
v 0 1 -3
v 0 2 -1
v 0 2 -2
v 0 2 -3
v 0 2 -4
v 0 3 -1
v 0 3 -2
v 0 3 -3
v 0 3 -4
v 0 4 -2
v 0 4 -3
v 1 2 -2
v 1 2 -3
v 1 3 -2
v 1 3 -3
v -3 2 1
v -3 3 1
v -2 2 1
v -2 3 1
v -4 2 -0
v -4 3 -0
v -3 1 -0
v -3 2 -0
v -3 3 -0
v -3 4 -0
v -2 1 -0
v -2 2 -0
v -2 3 -0
v -2 4 -0
v -1 2 -0
v -1 3 -0
v -5 2 -1
v -5 3 -1
v -4 2 -1
v -4 3 -1
v -4 4 -1
v -3 3 -1
v -3 4 -1
v -3 5 -1
v -2 3 -1
v -2 4 -1
v -2 5 -1
v -1 2 -1
v -1 3 -1
v -1 4 -1
v 0 2 -1
v 0 3 -1
v -6 2 -2
v -6 3 -2
v -5 1 -2
v -5 2 -2
v -5 3 -2
v -5 4 -2
v -4 3 -2
v -4 4 -2
v -4 5 -2
v -3 0 -2
v -3 1 -2
v -3 2 -2
v -3 4 -2
v -3 5 -2
v -3 6 -2
v -2 0 -2
v -2 1 -2
v -2 2 -2
v -2 4 -2
v -2 5 -2
v -2 6 -2
v -1 3 -2
v -1 4 -2
v -1 5 -2
v 0 1 -2
v 0 2 -2
v 0 3 -2
v 0 4 -2
v 1 2 -2
v 1 3 -2
v -4 2 -3
v -4 3 -3
v -4 4 -3
v -3 2 -3
v -3 4 -3
v -2 2 -3
v -2 4 -3
v -1 2 -3
v -1 3 -3
v -1 4 -3
v -3 2 -4
v -3 3 -4
v -3 4 -4
v -2 2 -4
v -2 3 -4
v -2 4 -4
v -3 2 -1
v -3 3 -1
v -3 4 -1
v -2 2 -1
v -2 3 -1
v -2 4 -1
v -4 2 -2
v -4 3 -2
v -4 4 -2
v -3 2 -2
v -3 4 -2
v -2 2 -2
v -2 4 -2
v -1 2 -2
v -1 3 -2
v -1 4 -2
v -6 2 -3
v -6 3 -3
v -5 1 -3
v -5 2 -3
v -5 3 -3
v -5 4 -3
v -4 3 -3
v -4 4 -3
v -4 5 -3
v -3 0 -3
v -3 1 -3
v -3 2 -3
v -3 4 -3
v -3 5 -3
v -3 6 -3
v -2 0 -3
v -2 1 -3
v -2 2 -3
v -2 4 -3
v -2 5 -3
v -2 6 -3
v -1 3 -3
v -1 4 -3
v -1 5 -3
v 0 1 -3
v 0 2 -3
v 0 3 -3
v 0 4 -3
v 1 2 -3
v 1 3 -3
v -5 2 -4
v -5 3 -4
v -4 2 -4
v -4 3 -4
v -4 4 -4
v -3 3 -4
v -3 4 -4
v -3 5 -4
v -2 3 -4
v -2 4 -4
v -2 5 -4
v -1 2 -4
v -1 3 -4
v -1 4 -4
v 0 2 -4
v 0 3 -4
v -4 2 -5
v -4 3 -5
v -3 1 -5
v -3 2 -5
v -3 3 -5
v -3 4 -5
v -2 1 -5
v -2 2 -5
v -2 3 -5
v -2 4 -5
v -1 2 -5
v -1 3 -5
v -3 2 -6
v -3 3 -6
v -2 2 -6
v -2 3 -6
v -3 0 -2
v -2 0 -2
v -3 0 -3
v -2 0 -3
v -3 1 -0
v -2 1 -0
v -5 1 -2
v -3 1 -2
v -2 1 -2
v 0 1 -2
v -5 1 -3
v -3 1 -3
v -2 1 -3
v 0 1 -3
v -3 1 -5
v -2 1 -5
v -3 2 1
v -2 2 1
v -4 2 -0
v -3 2 -0
v -2 2 -0
v -1 2 -0
v -5 2 -1
v -4 2 -1
v -1 2 -1
v 0 2 -1
v -6 2 -2
v -5 2 -2
v -3 2 -2
v -2 2 -2
v 0 2 -2
v 1 2 -2
v -6 2 -3
v -5 2 -3
v -3 2 -3
v -2 2 -3
v 0 2 -3
v 1 2 -3
v -5 2 -4
v -4 2 -4
v -1 2 -4
v 0 2 -4
v -4 2 -5
v -3 2 -5
v -2 2 -5
v -1 2 -5
v -3 2 -6
v -2 2 -6
v -3 4 -1
v -2 4 -1
v -4 4 -2
v -3 4 -2
v -2 4 -2
v -1 4 -2
v -4 4 -3
v -3 4 -3
v -2 4 -3
v -1 4 -3
v -3 4 -4
v -2 4 -4
v -3 2 -1
v -2 2 -1
v -4 2 -2
v -3 2 -2
v -2 2 -2
v -1 2 -2
v -4 2 -3
v -3 2 -3
v -2 2 -3
v -1 2 -3
v -3 2 -4
v -2 2 -4
v -3 3 1
v -2 3 1
v -4 3 -0
v -3 3 -0
v -2 3 -0
v -1 3 -0
v -5 3 -1
v -4 3 -1
v -3 3 -1
v -2 3 -1
v -1 3 -1
v 0 3 -1
v -6 3 -2
v -5 3 -2
v -4 3 -2
v -1 3 -2
v 0 3 -2
v 1 3 -2
v -6 3 -3
v -5 3 -3
v -4 3 -3
v -1 3 -3
v 0 3 -3
v 1 3 -3
v -5 3 -4
v -4 3 -4
v -3 3 -4
v -2 3 -4
v -1 3 -4
v 0 3 -4
v -4 3 -5
v -3 3 -5
v -2 3 -5
v -1 3 -5
v -3 3 -6
v -2 3 -6
v -3 4 -0
v -2 4 -0
v -4 4 -1
v -3 4 -1
v -2 4 -1
v -1 4 -1
v -5 4 -2
v -4 4 -2
v -3 4 -2
v -2 4 -2
v -1 4 -2
v 0 4 -2
v -5 4 -3
v -4 4 -3
v -3 4 -3
v -2 4 -3
v -1 4 -3
v 0 4 -3
v -4 4 -4
v -3 4 -4
v -2 4 -4
v -1 4 -4
v -3 4 -5
v -2 4 -5
v -3 5 -1
v -2 5 -1
v -4 5 -2
v -3 5 -2
v -2 5 -2
v -1 5 -2
v -4 5 -3
v -3 5 -3
v -2 5 -3
v -1 5 -3
v -3 5 -4
v -2 5 -4
v -3 6 -2
v -2 6 -2
v -3 6 -3
v -2 6 -3

# faces
f 3/2/1 2/2/1 1/2/1
f 4/2/1 2/2/1 3/2/1
f 8/1/1 6/1/1 5/1/1
f 9/1/1 6/1/1 8/1/1
f 11/2/1 8/2/1 7/2/1
f 12/2/1 8/2/1 11/2/1
f 13/2/1 10/2/1 9/2/1
f 14/2/1 10/2/1 13/2/1
f 15/2/1 13/2/1 12/2/1
f 16/2/1 13/2/1 15/2/1
f 21/2/1 18/2/1 17/2/1
f 22/2/1 18/2/1 21/2/1
f 25/2/1 20/2/1 19/2/1
f 26/2/1 20/2/1 25/2/1
f 27/2/1 23/2/1 22/2/1
f 28/2/1 23/2/1 27/2/1
f 29/2/1 25/2/1 24/2/1
f 30/2/1 25/2/1 29/2/1
f 31/2/1 29/2/1 28/2/1
f 32/2/1 29/2/1 31/2/1
f 36/1/1 34/1/1 33/1/1
f 37/1/1 34/1/1 36/1/1
f 40/1/1 36/1/1 35/1/1
f 41/1/1 36/1/1 40/1/1
f 42/1/1 38/1/1 37/1/1
f 43/1/1 38/1/1 42/1/1
f 45/2/1 40/2/1 39/2/1
f 46/2/1 40/2/1 45/2/1
f 49/2/1 44/2/1 43/2/1
f 50/2/1 44/2/1 49/2/1
f 51/2/1 47/2/1 46/2/1
f 52/2/1 47/2/1 51/2/1
f 53/1/1 42/1/1 41/1/1
f 54/1/1 42/1/1 53/1/1
f 55/2/1 49/2/1 48/2/1
f 56/2/1 49/2/1 55/2/1
f 57/2/1 53/2/1 52/2/1
f 58/2/1 53/2/1 57/2/1
f 59/2/1 55/2/1 54/2/1
f 60/2/1 55/2/1 59/2/1
f 61/2/1 59/2/1 58/2/1
f 62/2/1 59/2/1 61/2/1
f 67/2/1 64/2/1 63/2/1
f 68/2/1 66/2/1 65/2/1
f 69/2/1 64/2/1 67/2/1
f 70/2/1 64/2/1 69/2/1
f 71/2/1 68/2/1 65/2/1
f 72/2/1 68/2/1 71/2/1
f 75/1/1 74/1/1 73/1/1
f 76/1/1 74/1/1 75/1/1
f 77/2/1 76/2/1 75/2/1
f 78/2/1 76/2/1 77/2/1
f 79/1/2 80/1/2 81/1/2
f 81/1/2 80/1/2 82/1/2
f 81/2/2 82/2/2 83/2/2
f 83/2/2 82/2/2 84/2/2
f 85/2/2 86/2/2 89/2/2
f 87/2/2 88/2/2 90/2/2
f 89/2/2 86/2/2 91/2/2
f 91/2/2 86/2/2 92/2/2
f 87/2/2 90/2/2 93/2/2
f 93/2/2 90/2/2 94/2/2
f 95/1/2 96/1/2 98/1/2
f 98/1/2 96/1/2 99/1/2
f 97/1/2 98/1/2 102/1/2
f 102/1/2 98/1/2 103/1/2
f 99/1/2 100/1/2 104/1/2
f 104/1/2 100/1/2 105/1/2
f 101/2/2 102/2/2 107/2/2
f 107/2/2 102/2/2 108/2/2
f 105/2/2 106/2/2 111/2/2
f 111/2/2 106/2/2 112/2/2
f 108/2/2 109/2/2 113/2/2
f 113/2/2 109/2/2 114/2/2
f 103/1/2 104/1/2 115/1/2
f 115/1/2 104/1/2 116/1/2
f 110/2/2 111/2/2 117/2/2
f 117/2/2 111/2/2 118/2/2
f 114/2/2 115/2/2 119/2/2
f 119/2/2 115/2/2 120/2/2
f 116/2/2 117/2/2 121/2/2
f 121/2/2 117/2/2 122/2/2
f 120/2/2 121/2/2 123/2/2
f 123/2/2 121/2/2 124/2/2
f 125/2/2 126/2/2 129/2/2
f 129/2/2 126/2/2 130/2/2
f 127/2/2 128/2/2 133/2/2
f 133/2/2 128/2/2 134/2/2
f 130/2/2 131/2/2 135/2/2
f 135/2/2 131/2/2 136/2/2
f 132/2/2 133/2/2 137/2/2
f 137/2/2 133/2/2 138/2/2
f 136/2/2 137/2/2 139/2/2
f 139/2/2 137/2/2 140/2/2
f 141/1/2 142/1/2 144/1/2
f 144/1/2 142/1/2 145/1/2
f 143/2/2 144/2/2 147/2/2
f 147/2/2 144/2/2 148/2/2
f 145/2/2 146/2/2 149/2/2
f 149/2/2 146/2/2 150/2/2
f 148/2/2 149/2/2 151/2/2
f 151/2/2 149/2/2 152/2/2
f 153/2/2 154/2/2 155/2/2
f 155/2/2 154/2/2 156/2/2
f 159/2/3 158/2/3 157/2/3
f 160/2/3 158/2/3 159/2/3
f 164/2/3 162/2/3 161/2/3
f 165/2/3 162/2/3 164/2/3
f 167/1/3 164/1/3 163/1/3
f 168/1/3 164/1/3 167/1/3
f 169/2/3 166/2/3 165/2/3
f 170/2/3 166/2/3 169/2/3
f 171/2/3 169/2/3 168/2/3
f 172/2/3 169/2/3 171/2/3
f 175/2/3 174/2/3 173/2/3
f 176/2/3 174/2/3 175/2/3
f 178/2/3 177/2/3 176/2/3
f 179/2/3 177/2/3 178/2/3
f 182/2/3 180/2/3 179/2/3
f 183/2/3 180/2/3 182/2/3
f 185/2/3 182/2/3 181/2/3
f 186/2/3 182/2/3 185/2/3
f 187/2/3 185/2/3 184/2/3
f 188/2/3 185/2/3 187/2/3
f 192/2/3 190/2/3 189/2/3
f 193/2/3 190/2/3 192/2/3
f 195/2/3 194/2/3 193/2/3
f 196/2/3 194/2/3 195/2/3
f 199/1/3 192/1/3 191/1/3
f 200/1/3 192/1/3 199/1/3
f 201/2/3 197/2/3 196/2/3
f 202/2/3 197/2/3 201/2/3
f 204/1/3 199/1/3 198/1/3
f 205/1/3 199/1/3 204/1/3
f 206/1/3 201/1/3 200/1/3
f 207/1/3 201/1/3 206/1/3
f 208/2/3 203/2/3 202/2/3
f 209/2/3 203/2/3 208/2/3
f 211/2/3 208/2/3 207/2/3
f 212/2/3 208/2/3 211/2/3
f 213/1/3 206/1/3 205/1/3
f 214/1/3 206/1/3 213/1/3
f 215/2/3 211/2/3 210/2/3
f 216/2/3 211/2/3 215/2/3
f 217/2/3 215/2/3 214/2/3
f 218/2/3 215/2/3 217/2/3
f 222/2/3 220/2/3 219/2/3
f 222/2/3 221/2/3 220/2/3
f 223/2/3 221/2/3 222/2/3
f 226/2/3 225/2/3 224/2/3
f 227/2/3 225/2/3 226/2/3
f 228/2/3 225/2/3 227/2/3
f 232/1/3 230/1/3 229/1/3
f 233/2/3 231/2/3 230/2/3
f 233/1/3 230/1/3 232/1/3
f 234/2/3 231/2/3 233/2/3
f 235/1/4 236/1/4 238/1/4
f 236/2/4 237/2/4 239/2/4
f 238/1/4 236/1/4 239/1/4
f 239/2/4 237/2/4 240/2/4
f 241/2/4 242/2/4 244/2/4
f 242/2/4 243/2/4 244/2/4
f 244/2/4 243/2/4 245/2/4
f 246/2/4 247/2/4 248/2/4
f 248/2/4 247/2/4 249/2/4
f 249/2/4 247/2/4 250/2/4
f 251/2/4 252/2/4 254/2/4
f 254/2/4 252/2/4 255/2/4
f 255/2/4 256/2/4 257/2/4
f 257/2/4 256/2/4 258/2/4
f 253/1/4 254/1/4 261/1/4
f 261/1/4 254/1/4 262/1/4
f 258/2/4 259/2/4 263/2/4
f 263/2/4 259/2/4 264/2/4
f 260/1/4 261/1/4 266/1/4
f 266/1/4 261/1/4 267/1/4
f 262/1/4 263/1/4 268/1/4
f 268/1/4 263/1/4 269/1/4
f 264/2/4 265/2/4 270/2/4
f 270/2/4 265/2/4 271/2/4
f 269/2/4 270/2/4 273/2/4
f 273/2/4 270/2/4 274/2/4
f 267/1/4 268/1/4 275/1/4
f 275/1/4 268/1/4 276/1/4
f 272/2/4 273/2/4 277/2/4
f 277/2/4 273/2/4 278/2/4
f 276/2/4 277/2/4 279/2/4
f 279/2/4 277/2/4 280/2/4
f 281/2/4 282/2/4 283/2/4
f 283/2/4 282/2/4 284/2/4
f 284/2/4 285/2/4 286/2/4
f 286/2/4 285/2/4 287/2/4
f 287/2/4 288/2/4 290/2/4
f 290/2/4 288/2/4 291/2/4
f 289/2/4 290/2/4 293/2/4
f 293/2/4 290/2/4 294/2/4
f 292/2/4 293/2/4 295/2/4
f 295/2/4 293/2/4 296/2/4
f 297/2/4 298/2/4 300/2/4
f 300/2/4 298/2/4 301/2/4
f 299/1/4 300/1/4 303/1/4
f 303/1/4 300/1/4 304/1/4
f 301/2/4 302/2/4 305/2/4
f 305/2/4 302/2/4 306/2/4
f 304/2/4 305/2/4 307/2/4
f 307/2/4 305/2/4 308/2/4
f 309/2/4 310/2/4 311/2/4
f 311/2/4 310/2/4 312/2/4
f 315/1/5 314/1/5 313/1/5
f 316/1/5 314/1/5 315/1/5
f 320/1/5 318/1/5 317/1/5
f 321/1/5 318/1/5 320/1/5
f 323/1/5 320/1/5 319/1/5
f 324/1/5 320/1/5 323/1/5
f 325/1/5 322/1/5 321/1/5
f 326/1/5 322/1/5 325/1/5
f 327/1/5 325/1/5 324/1/5
f 328/1/5 325/1/5 327/1/5
f 332/2/5 330/2/5 329/2/5
f 333/2/5 330/2/5 332/2/5
f 336/2/5 332/2/5 331/2/5
f 337/2/5 334/2/5 333/2/5
f 340/2/5 336/2/5 335/2/5
f 341/2/5 332/2/5 336/2/5
f 341/2/5 336/2/5 340/2/5
f 342/2/5 338/2/5 337/2/5
f 342/2/5 337/2/5 333/2/5
f 343/2/5 338/2/5 342/2/5
f 345/2/5 340/2/5 339/2/5
f 346/2/5 340/2/5 345/2/5
f 349/2/5 344/2/5 343/2/5
f 350/2/5 344/2/5 349/2/5
f 351/2/5 347/2/5 346/2/5
f 352/2/5 347/2/5 351/2/5
f 353/2/5 349/2/5 348/2/5
f 354/2/5 349/2/5 353/2/5
f 355/2/5 347/2/5 352/2/5
f 356/2/5 347/2/5 355/2/5
f 357/2/5 353/2/5 348/2/5
f 358/2/5 353/2/5 357/2/5
f 359/2/5 357/2/5 356/2/5
f 360/2/5 357/2/5 359/2/5
f 364/2/5 362/2/5 361/2/5
f 365/2/5 362/2/5 364/2/5
f 367/2/5 364/2/5 363/2/5
f 368/2/5 364/2/5 367/2/5
f 369/2/5 366/2/5 365/2/5
f 370/2/5 366/2/5 369/2/5
f 371/2/5 369/2/5 368/2/5
f 372/2/5 369/2/5 371/2/5
f 373/1/6 374/1/6 376/1/6
f 376/1/6 374/1/6 377/1/6
f 375/1/6 376/1/6 379/1/6
f 379/1/6 376/1/6 380/1/6
f 377/1/6 378/1/6 381/1/6
f 381/1/6 378/1/6 382/1/6
f 380/1/6 381/1/6 383/1/6
f 383/1/6 381/1/6 384/1/6
f 385/2/6 386/2/6 388/2/6
f 388/2/6 386/2/6 389/2/6
f 387/2/6 388/2/6 392/2/6
f 392/2/6 388/2/6 393/2/6
f 389/2/6 390/2/6 394/2/6
f 394/2/6 390/2/6 395/2/6
f 391/2/6 392/2/6 398/2/6
f 398/2/6 392/2/6 399/2/6
f 395/2/6 396/2/6 400/2/6
f 400/2/6 396/2/6 401/2/6
f 397/2/6 398/2/6 403/2/6
f 403/2/6 398/2/6 404/2/6
f 401/2/6 402/2/6 407/2/6
f 407/2/6 402/2/6 408/2/6
f 404/2/6 405/2/6 409/2/6
f 409/2/6 405/2/6 410/2/6
f 406/2/6 407/2/6 413/2/6
f 413/2/6 407/2/6 414/2/6
f 410/2/6 411/2/6 415/2/6
f 415/2/6 411/2/6 416/2/6
f 412/2/6 413/2/6 417/2/6
f 417/2/6 413/2/6 418/2/6
f 416/2/6 417/2/6 419/2/6
f 419/2/6 417/2/6 420/2/6
f 421/2/6 422/2/6 424/2/6
f 424/2/6 422/2/6 425/2/6
f 423/2/6 424/2/6 428/2/6
f 428/2/6 424/2/6 429/2/6
f 425/2/6 426/2/6 430/2/6
f 430/2/6 426/2/6 431/2/6
f 427/2/6 428/2/6 433/2/6
f 433/2/6 428/2/6 434/2/6
f 431/2/6 432/2/6 437/2/6
f 437/2/6 432/2/6 438/2/6
f 434/2/6 435/2/6 439/2/6
f 439/2/6 435/2/6 440/2/6
f 436/2/6 437/2/6 441/2/6
f 441/2/6 437/2/6 442/2/6
f 440/2/6 441/2/6 443/2/6
f 443/2/6 441/2/6 444/2/6
f 445/2/6 446/2/6 448/2/6
f 448/2/6 446/2/6 449/2/6
f 447/2/6 448/2/6 451/2/6
f 451/2/6 448/2/6 452/2/6
f 449/2/6 450/2/6 453/2/6
f 453/2/6 450/2/6 454/2/6
f 452/2/6 453/2/6 455/2/6
f 455/2/6 453/2/6 456/2/6
f 457/2/6 458/2/6 459/2/6
f 459/2/6 458/2/6 460/2/6
