# MagicaVoxel @ Ephtracy

# group
g tree04

# material
mtllib tree04.mtl
usemtl palette

# normals
vn -1 0 0
vn 1 0 0
vn 0 0 1
vn 0 0 -1
vn 0 -1 0
vn 0 1 0

# texcoords
vt 0.369141 0.5
vt 0.462891 0.5
vt 0.490234 0.5

# verts
v -3 6 4
v -3 6 -0
v -3 8 1
v -3 8 -0
v -3 9 1
v -3 9 -0
v -3 10 4
v -3 10 2
v -3 11 4
v -3 11 2
v -3 13 4
v -3 13 -0
v -1 8 -0
v -1 8 -1
v -1 8 -2
v -1 9 -1
v -1 9 -2
v -1 13 2
v -1 13 -0
v -1 17 -0
v -1 17 -1
v -1 19 -0
v -1 19 -1
v -1 21 -0
v -1 21 -1
v -1 22 2
v -1 22 -0
v -1 22 -1
v -1 22 -2
v 0 0 1
v 0 0 -1
v 0 6 1
v 0 6 -0
v 0 8 -0
v 0 8 -1
v 1 17 -2
v 1 17 -3
v 1 22 -0
v 1 22 -2
v 1 24 -0
v 1 24 -3
v 1 6 4
v 1 6 1
v 1 8 2
v 1 8 1
v 1 13 4
v 1 13 2
v 2 0 1
v 2 0 -1
v 2 8 1
v 2 8 -1
v 3 8 2
v 3 8 -2
v 3 9 -0
v 3 9 -1
v 3 10 -0
v 3 10 -1
v 3 13 1
v 3 13 -0
v 3 15 1
v 3 15 -0
v 3 17 -0
v 3 17 -2
v 3 19 1
v 3 19 -0
v 3 22 2
v 3 22 1
v 3 22 -0
v 4 17 -0
v 4 17 -3
v 4 21 -1
v 4 21 -2
v 4 23 -1
v 4 23 -2
v 4 24 -0
v 4 24 -3
v -3 6 4
v -3 10 4
v -3 11 4
v -3 13 4
v -2 10 4
v -2 11 4
v -2 12 4
v -2 13 4
v -1 6 4
v -1 8 4
v -1 12 4
v -1 13 4
v 0 6 4
v 0 8 4
v 1 6 4
v 1 13 4
v -1 13 2
v -1 22 2
v 0 16 2
v 0 18 2
v 1 8 2
v 1 13 2
v 1 16 2
v 1 18 2
v 3 8 2
v 3 22 2
v 0 0 1
v 0 6 1
v 1 6 1
v 1 8 1
v 2 0 1
v 2 8 1
v 1 22 -0
v 1 24 -0
v 2 22 -0
v 3 17 -0
v 3 19 -0
v 3 22 -0
v 4 17 -0
v 4 24 -0
v -3 6 -0
v -3 8 -0
v -3 9 -0
v -3 13 -0
v -2 8 -0
v -2 9 -0
v -1 8 -0
v -1 13 -0
v 0 6 -0
v 0 8 -0
v 0 0 -1
v 0 8 -1
v 2 0 -1
v 2 8 -1
v -1 8 -2
v -1 9 -2
v -1 22 -2
v 0 8 -2
v 0 9 -2
v 0 12 -2
v 0 15 -2
v 1 12 -2
v 1 15 -2
v 1 17 -2
v 1 22 -2
v 3 8 -2
v 3 17 -2
v 1 17 -3
v 1 24 -3
v 2 20 -3
v 2 23 -3
v 3 20 -3
v 3 23 -3
v 4 17 -3
v 4 24 -3
v 0 0 1
v 2 0 1
v 0 0 -1
v 2 0 -1
v -3 6 4
v -1 6 4
v 0 6 4
v 1 6 4
v -1 6 2
v 0 6 2
v 0 6 1
v 1 6 1
v -3 6 -0
v 0 6 -0
v 1 8 2
v 3 8 2
v 1 8 1
v 2 8 1
v -1 8 -0
v 0 8 -0
v -1 8 -1
v 0 8 -1
v 2 8 -1
v -1 8 -2
v 0 8 -2
v 3 8 -2
v 3 17 -0
v 4 17 -0
v 1 17 -2
v 3 17 -2
v 1 17 -3
v 4 17 -3
v -3 13 4
v -2 13 4
v -1 13 4
v 1 13 4
v -2 13 3
v -1 13 3
v -1 13 2
v 1 13 2
v -3 13 -0
v -1 13 -0
v -1 22 2
v 3 22 2
v 2 22 1
v 3 22 1
v -1 22 -0
v 0 22 -0
v 1 22 -0
v 2 22 -0
v 3 22 -0
v -1 22 -1
v 0 22 -1
v -1 22 -2
v 1 22 -2
v 1 24 -0
v 4 24 -0
v 1 24 -3
v 4 24 -3

# faces
f 3/3/1 2/3/1 1/3/1
f 4/3/1 2/3/1 3/3/1
f 5/3/1 3/3/1 1/3/1
f 5/2/1 4/2/1 3/2/1
f 6/2/1 4/2/1 5/2/1
f 7/3/1 5/3/1 1/3/1
f 7/3/1 6/3/1 5/3/1
f 8/3/1 6/3/1 7/3/1
f 9/2/1 8/2/1 7/2/1
f 10/3/1 6/3/1 8/3/1
f 10/2/1 8/2/1 9/2/1
f 11/3/1 10/3/1 9/3/1
f 12/3/1 6/3/1 10/3/1
f 12/3/1 10/3/1 11/3/1
f 16/3/1 14/3/1 13/3/1
f 16/2/1 15/2/1 14/2/1
f 17/2/1 15/2/1 16/2/1
f 19/3/1 16/3/1 13/3/1
f 19/3/1 17/3/1 16/3/1
f 20/3/1 17/3/1 19/3/1
f 20/3/1 19/3/1 18/3/1
f 21/3/1 17/3/1 20/3/1
f 22/3/1 20/3/1 18/3/1
f 22/2/1 21/2/1 20/2/1
f 23/3/1 17/3/1 21/3/1
f 23/2/1 21/2/1 22/2/1
f 24/3/1 22/3/1 18/3/1
f 24/3/1 23/3/1 22/3/1
f 25/3/1 17/3/1 23/3/1
f 25/3/1 23/3/1 24/3/1
f 26/3/1 24/3/1 18/3/1
f 27/2/1 25/2/1 24/2/1
f 27/3/1 24/3/1 26/3/1
f 28/3/1 17/3/1 25/3/1
f 28/2/1 25/2/1 27/2/1
f 29/3/1 17/3/1 28/3/1
f 32/1/1 31/1/1 30/1/1
f 33/1/1 31/1/1 32/1/1
f 34/1/1 31/1/1 33/1/1
f 35/1/1 31/1/1 34/1/1
f 39/3/1 37/3/1 36/3/1
f 40/3/1 39/3/1 38/3/1
f 41/3/1 37/3/1 39/3/1
f 41/3/1 39/3/1 40/3/1
f 42/3/2 43/3/2 44/3/2
f 44/3/2 43/3/2 45/3/2
f 42/3/2 44/3/2 46/3/2
f 46/3/2 44/3/2 47/3/2
f 48/1/2 49/1/2 50/1/2
f 50/1/2 49/1/2 51/1/2
f 52/3/2 53/3/2 54/3/2
f 54/3/2 53/3/2 55/3/2
f 52/3/2 54/3/2 56/3/2
f 54/2/2 55/2/2 56/2/2
f 55/3/2 53/3/2 57/3/2
f 56/2/2 55/2/2 57/2/2
f 52/3/2 56/3/2 58/3/2
f 56/3/2 57/3/2 58/3/2
f 58/3/2 57/3/2 59/3/2
f 52/3/2 58/3/2 60/3/2
f 58/2/2 59/2/2 60/2/2
f 59/3/2 57/3/2 61/3/2
f 60/2/2 59/2/2 61/2/2
f 60/3/2 61/3/2 62/3/2
f 61/3/2 57/3/2 62/3/2
f 57/3/2 53/3/2 63/3/2
f 62/3/2 57/3/2 63/3/2
f 60/3/2 62/3/2 64/3/2
f 52/3/2 60/3/2 64/3/2
f 64/3/2 62/3/2 65/3/2
f 52/3/2 64/3/2 66/3/2
f 64/2/2 65/2/2 67/2/2
f 66/3/2 64/3/2 67/3/2
f 67/2/2 65/2/2 68/2/2
f 69/3/2 70/3/2 71/3/2
f 71/3/2 70/3/2 72/3/2
f 69/3/2 71/3/2 73/3/2
f 71/2/2 72/2/2 73/2/2
f 72/3/2 70/3/2 74/3/2
f 73/2/2 72/2/2 74/2/2
f 69/3/2 73/3/2 75/3/2
f 73/3/2 74/3/2 75/3/2
f 74/3/2 70/3/2 76/3/2
f 75/3/2 74/3/2 76/3/2
f 81/3/3 78/3/3 77/3/3
f 81/2/3 79/2/3 78/2/3
f 82/3/3 80/3/3 79/3/3
f 82/2/3 79/2/3 81/2/3
f 83/3/3 80/3/3 82/3/3
f 84/3/3 80/3/3 83/3/3
f 85/3/3 81/3/3 77/3/3
f 85/3/3 82/3/3 81/3/3
f 85/3/3 83/3/3 82/3/3
f 86/3/3 83/3/3 85/3/3
f 87/2/3 84/2/3 83/2/3
f 87/3/3 83/3/3 86/3/3
f 88/2/3 84/2/3 87/2/3
f 89/2/3 86/2/3 85/2/3
f 90/3/3 87/3/3 86/3/3
f 90/2/3 86/2/3 89/2/3
f 90/3/3 88/3/3 87/3/3
f 91/3/3 90/3/3 89/3/3
f 92/3/3 88/3/3 90/3/3
f 92/3/3 90/3/3 91/3/3
f 95/3/3 94/3/3 93/3/3
f 96/3/3 94/3/3 95/3/3
f 98/3/3 95/3/3 93/3/3
f 99/2/3 96/2/3 95/2/3
f 99/3/3 95/3/3 98/3/3
f 100/3/3 94/3/3 96/3/3
f 100/2/3 96/2/3 99/2/3
f 101/3/3 99/3/3 98/3/3
f 101/3/3 98/3/3 97/3/3
f 101/3/3 100/3/3 99/3/3
f 102/3/3 94/3/3 100/3/3
f 102/3/3 100/3/3 101/3/3
f 105/1/3 104/1/3 103/1/3
f 107/1/3 105/1/3 103/1/3
f 107/1/3 106/1/3 105/1/3
f 108/1/3 106/1/3 107/1/3
f 111/3/3 110/3/3 109/3/3
f 114/3/3 110/3/3 111/3/3
f 115/3/3 113/3/3 112/3/3
f 115/3/3 114/3/3 113/3/3
f 116/3/3 110/3/3 114/3/3
f 116/3/3 114/3/3 115/3/3
f 117/3/4 118/3/4 121/3/4
f 118/2/4 119/2/4 121/2/4
f 119/3/4 120/3/4 122/3/4
f 121/2/4 119/2/4 122/2/4
f 117/3/4 121/3/4 123/3/4
f 121/3/4 122/3/4 123/3/4
f 122/3/4 120/3/4 124/3/4
f 123/3/4 122/3/4 124/3/4
f 117/3/4 123/3/4 125/3/4
f 125/3/4 123/3/4 126/3/4
f 127/1/4 128/1/4 129/1/4
f 129/1/4 128/1/4 130/1/4
f 131/2/4 132/2/4 134/2/4
f 132/3/4 133/3/4 135/3/4
f 134/2/4 132/2/4 135/2/4
f 135/3/4 133/3/4 136/3/4
f 136/3/4 133/3/4 137/3/4
f 134/3/4 135/3/4 138/3/4
f 135/3/4 136/3/4 138/3/4
f 136/2/4 137/2/4 138/2/4
f 137/3/4 133/3/4 139/3/4
f 138/2/4 137/2/4 139/2/4
f 139/3/4 133/3/4 140/3/4
f 140/3/4 133/3/4 141/3/4
f 134/3/4 138/3/4 142/3/4
f 138/3/4 139/3/4 142/3/4
f 139/3/4 140/3/4 142/3/4
f 142/3/4 140/3/4 143/3/4
f 144/3/4 145/3/4 146/3/4
f 146/3/4 145/3/4 147/3/4
f 144/3/4 146/3/4 148/3/4
f 146/2/4 147/2/4 148/2/4
f 147/3/4 145/3/4 149/3/4
f 148/2/4 147/2/4 149/2/4
f 144/3/4 148/3/4 150/3/4
f 148/3/4 149/3/4 150/3/4
f 149/3/4 145/3/4 151/3/4
f 150/3/4 149/3/4 151/3/4
f 154/1/5 153/1/5 152/1/5
f 155/1/5 153/1/5 154/1/5
f 160/3/5 157/3/5 156/3/5
f 160/2/5 158/2/5 157/2/5
f 161/3/5 159/3/5 158/3/5
f 161/2/5 158/2/5 160/2/5
f 162/3/5 161/3/5 160/3/5
f 162/3/5 159/3/5 161/3/5
f 163/3/5 159/3/5 162/3/5
f 164/3/5 160/3/5 156/3/5
f 164/3/5 162/3/5 160/3/5
f 165/3/5 162/3/5 164/3/5
f 168/3/5 167/3/5 166/3/5
f 169/3/5 167/3/5 168/3/5
f 172/3/5 171/3/5 170/3/5
f 173/3/5 171/3/5 172/3/5
f 174/3/5 167/3/5 169/3/5
f 175/2/5 173/2/5 172/2/5
f 176/3/5 174/3/5 173/3/5
f 176/2/5 173/2/5 175/2/5
f 177/3/5 167/3/5 174/3/5
f 177/3/5 174/3/5 176/3/5
f 181/3/5 179/3/5 178/3/5
f 182/3/5 181/3/5 180/3/5
f 183/3/5 179/3/5 181/3/5
f 183/3/5 181/3/5 182/3/5
f 184/3/6 185/3/6 188/3/6
f 185/2/6 186/2/6 188/2/6
f 186/3/6 187/3/6 189/3/6
f 188/2/6 186/2/6 189/2/6
f 188/3/6 189/3/6 190/3/6
f 189/3/6 187/3/6 190/3/6
f 190/3/6 187/3/6 191/3/6
f 184/3/6 188/3/6 192/3/6
f 188/3/6 190/3/6 192/3/6
f 192/3/6 190/3/6 193/3/6
f 194/3/6 195/3/6 196/3/6
f 196/3/6 195/3/6 197/3/6
f 194/3/6 196/3/6 198/3/6
f 198/3/6 196/3/6 199/3/6
f 199/3/6 196/3/6 200/3/6
f 196/2/6 197/2/6 201/2/6
f 200/3/6 196/3/6 201/3/6
f 201/2/6 197/2/6 202/2/6
f 198/2/6 199/2/6 203/2/6
f 199/3/6 200/3/6 204/3/6
f 203/2/6 199/2/6 204/2/6
f 203/3/6 204/3/6 205/3/6
f 204/3/6 200/3/6 206/3/6
f 205/3/6 204/3/6 206/3/6
f 207/3/6 208/3/6 209/3/6
f 209/3/6 208/3/6 210/3/6
