# MagicaVoxel @ Ephtracy

# group
g tree07

# material
mtllib tree07.mtl
usemtl palette

# normals
vn -1 0 0
vn 1 0 0
vn 0 0 1
vn 0 0 -1
vn 0 -1 0
vn 0 1 0

# texcoords
vt 0.369141 0.5
vt 0.482422 0.5
vt 0.486328 0.5
vt 0.490234 0.5
vt 0.509766 0.5

# verts
v -3 5 2
v -3 5 -2
v -3 9 2
v -3 9 -2
v -2 4 3
v -2 4 -3
v -2 5 2
v -2 5 -2
v -2 9 2
v -2 9 -2
v -2 10 3
v -2 10 -3
v -1 5 4
v -1 5 3
v -1 5 -3
v -1 5 -4
v -1 9 4
v -1 9 3
v -1 9 -3
v -1 9 -4
v -1 10 2
v -1 10 -2
v -1 11 2
v -1 11 -2
v 0 0 1
v 0 0 -1
v 0 4 1
v 0 4 -1
v 2 0 1
v 2 0 -1
v 2 4 1
v 2 4 -1
v 3 5 4
v 3 5 3
v 3 5 -3
v 3 5 -4
v 3 9 4
v 3 9 3
v 3 9 -3
v 3 9 -4
v 3 10 2
v 3 10 -2
v 3 11 2
v 3 11 -2
v 4 4 3
v 4 4 -3
v 4 5 2
v 4 5 -2
v 4 9 2
v 4 9 -2
v 4 10 3
v 4 10 -3
v 5 5 2
v 5 5 -2
v 5 9 2
v 5 9 -2
v -1 5 4
v -1 9 4
v 3 5 4
v 3 9 4
v -2 4 3
v -2 10 3
v -1 5 3
v -1 9 3
v 3 5 3
v 3 9 3
v 4 4 3
v 4 10 3
v -3 5 2
v -3 9 2
v -2 5 2
v -2 9 2
v -1 10 2
v -1 11 2
v 3 10 2
v 3 11 2
v 4 5 2
v 4 9 2
v 5 5 2
v 5 9 2
v 0 0 1
v 0 4 1
v 2 0 1
v 2 4 1
v 0 0 -1
v 0 4 -1
v 2 0 -1
v 2 4 -1
v -3 5 -2
v -3 9 -2
v -2 5 -2
v -2 9 -2
v -1 10 -2
v -1 11 -2
v 3 10 -2
v 3 11 -2
v 4 5 -2
v 4 9 -2
v 5 5 -2
v 5 9 -2
v -2 4 -3
v -2 10 -3
v -1 5 -3
v -1 9 -3
v 3 5 -3
v 3 9 -3
v 4 4 -3
v 4 10 -3
v -1 5 -4
v -1 9 -4
v 3 5 -4
v 3 9 -4
v 0 0 1
v 2 0 1
v 0 0 -1
v 2 0 -1
v -2 4 3
v 4 4 3
v 0 4 1
v 2 4 1
v 0 4 -1
v 2 4 -1
v -2 4 -3
v 4 4 -3
v -1 5 4
v 3 5 4
v -1 5 3
v 3 5 3
v -3 5 2
v -2 5 2
v 4 5 2
v 5 5 2
v -3 5 -2
v -2 5 -2
v 4 5 -2
v 5 5 -2
v -1 5 -3
v 3 5 -3
v -1 5 -4
v 3 5 -4
v -1 9 4
v 3 9 4
v -1 9 3
v 3 9 3
v -3 9 2
v -2 9 2
v 4 9 2
v 5 9 2
v -3 9 -2
v -2 9 -2
v 4 9 -2
v 5 9 -2
v -1 9 -3
v 3 9 -3
v -1 9 -4
v 3 9 -4
v -2 10 3
v 4 10 3
v -1 10 2
v 3 10 2
v -1 10 -2
v 3 10 -2
v -2 10 -3
v 4 10 -3
v -1 11 2
v 3 11 2
v -1 11 -2
v 3 11 -2

# faces
f 3/3/1 2/3/1 1/3/1
f 4/3/1 2/3/1 3/3/1
f 7/2/1 6/2/1 5/2/1
f 8/2/1 6/2/1 7/2/1
f 9/2/1 7/2/1 5/2/1
f 10/2/1 6/2/1 8/2/1
f 11/2/1 9/2/1 5/2/1
f 11/2/1 10/2/1 9/2/1
f 12/2/1 6/2/1 10/2/1
f 12/2/1 10/2/1 11/2/1
f 17/3/1 14/3/1 13/3/1
f 18/3/1 14/3/1 17/3/1
f 19/3/1 16/3/1 15/3/1
f 20/3/1 16/3/1 19/3/1
f 23/3/1 22/3/1 21/3/1
f 24/3/1 22/3/1 23/3/1
f 27/5/1 26/5/1 25/5/1
f 28/5/1 26/5/1 27/5/1
f 29/5/2 30/5/2 31/5/2
f 31/5/2 30/5/2 32/5/2
f 33/3/2 34/3/2 37/3/2
f 37/3/2 34/3/2 38/3/2
f 35/3/2 36/3/2 39/3/2
f 39/3/2 36/3/2 40/3/2
f 41/3/2 42/3/2 43/3/2
f 43/3/2 42/3/2 44/3/2
f 45/2/2 46/2/2 47/2/2
f 47/2/2 46/2/2 48/2/2
f 45/2/2 47/2/2 49/2/2
f 48/2/2 46/2/2 50/2/2
f 45/2/2 49/2/2 51/2/2
f 49/2/2 50/2/2 51/2/2
f 50/2/2 46/2/2 52/2/2
f 51/2/2 50/2/2 52/2/2
f 53/3/2 54/3/2 55/3/2
f 55/3/2 54/3/2 56/3/2
f 59/3/3 58/3/3 57/3/3
f 60/3/3 58/3/3 59/3/3
f 63/2/3 62/2/3 61/2/3
f 64/2/3 62/2/3 63/2/3
f 65/2/3 63/2/3 61/2/3
f 66/2/3 62/2/3 64/2/3
f 67/2/3 65/2/3 61/2/3
f 67/2/3 66/2/3 65/2/3
f 68/2/3 62/2/3 66/2/3
f 68/2/3 66/2/3 67/2/3
f 71/3/3 70/3/3 69/3/3
f 72/3/3 70/3/3 71/3/3
f 75/3/3 74/3/3 73/3/3
f 76/3/3 74/3/3 75/3/3
f 79/3/3 78/3/3 77/3/3
f 80/3/3 78/3/3 79/3/3
f 83/5/3 82/5/3 81/5/3
f 84/5/3 82/5/3 83/5/3
f 85/5/4 86/5/4 87/5/4
f 87/5/4 86/5/4 88/5/4
f 89/3/4 90/3/4 91/3/4
f 91/3/4 90/3/4 92/3/4
f 93/3/4 94/3/4 95/3/4
f 95/3/4 94/3/4 96/3/4
f 97/3/4 98/3/4 99/3/4
f 99/3/4 98/3/4 100/3/4
f 101/2/4 102/2/4 103/2/4
f 103/2/4 102/2/4 104/2/4
f 101/2/4 103/2/4 105/2/4
f 104/2/4 102/2/4 106/2/4
f 101/2/4 105/2/4 107/2/4
f 105/2/4 106/2/4 107/2/4
f 106/2/4 102/2/4 108/2/4
f 107/2/4 106/2/4 108/2/4
f 109/3/4 110/3/4 111/3/4
f 111/3/4 110/3/4 112/3/4
f 115/5/5 114/5/5 113/5/5
f 116/5/5 114/5/5 115/5/5
f 119/2/5 118/2/5 117/2/5
f 120/2/5 118/2/5 119/2/5
f 121/2/5 119/2/5 117/2/5
f 122/2/5 118/2/5 120/2/5
f 123/2/5 121/2/5 117/2/5
f 123/2/5 122/2/5 121/2/5
f 124/2/5 118/2/5 122/2/5
f 124/2/5 122/2/5 123/2/5
f 127/3/5 126/3/5 125/3/5
f 128/3/5 126/3/5 127/3/5
f 133/3/5 130/3/5 129/3/5
f 134/3/5 130/3/5 133/3/5
f 135/3/5 132/3/5 131/3/5
f 136/3/5 132/3/5 135/3/5
f 139/3/5 138/3/5 137/3/5
f 140/3/5 138/3/5 139/3/5
f 141/3/6 142/3/6 143/3/6
f 143/3/6 142/3/6 144/3/6
f 145/3/6 146/3/6 149/3/6
f 149/3/6 146/3/6 150/3/6
f 147/3/6 148/3/6 151/3/6
f 151/3/6 148/3/6 152/3/6
f 153/3/6 154/3/6 155/3/6
f 155/3/6 154/3/6 156/3/6
f 157/2/6 158/2/6 159/2/6
f 159/2/6 158/2/6 160/2/6
f 157/2/6 159/2/6 161/2/6
f 160/2/6 158/2/6 162/2/6
f 157/2/6 161/2/6 163/2/6
f 161/2/6 162/2/6 163/2/6
f 162/2/6 158/2/6 164/2/6
f 163/2/6 162/2/6 164/2/6
f 165/3/6 166/3/6 167/3/6
f 167/3/6 166/3/6 168/3/6
